<svg xmlns="http://www.w3.org/2000/svg" viewBox="0 0 600 600" width="600" height="600" shape-rendering="crispEdges">
<path fill="#000" d="M146 0h90v1H146z M255 0h90v1H255z M382 0h18v1H382z M418 0h18v1H418z M59 1h10v1H59z M146 1h90v1H146z M255 1h90v1H255z M382 1h18v1H382z M418 1h18v1H418z M531 1h10v1H531z M54 2h20v1H54z M146 2h90v1H146z M255 2h90v1H255z M382 2h18v1H382z M418 2h18v1H418z M526 2h20v1H526z M48 3h31v1H48z M146 3h90v1H146z M255 3h90v1H255z M382 3h18v1H382z M418 3h18v1H418z M521 3h31v1H521z M44 4h40v1H44z M146 4h90v1H146z M255 4h90v1H255z M382 4h18v1H382z M418 4h18v1H418z M516 4h40v1H516z M43 5h42v1H43z M146 5h90v1H146z M255 5h90v1H255z M382 5h18v1H382z M418 5h18v1H418z M515 5h42v1H515z M40 6h48v1H40z M146 6h90v1H146z M255 6h90v1H255z M382 6h18v1H382z M418 6h18v1H418z M512 6h48v1H512z M37 7h54v1H37z M146 7h90v1H146z M255 7h90v1H255z M382 7h18v1H382z M418 7h18v1H418z M509 7h54v1H509z M36 8h56v1H36z M146 8h90v1H146z M255 8h90v1H255z M382 8h18v1H382z M418 8h18v1H418z M508 8h56v1H508z M34 9h60v1H34z M146 9h90v1H146z M255 9h90v1H255z M382 9h18v1H382z M418 9h18v1H418z M506 9h60v1H506z M31 10h65v1H31z M146 10h90v1H146z M255 10h90v1H255z M382 10h18v1H382z M418 10h18v1H418z M504 10h65v1H504z M30 11h68v1H30z M146 11h90v1H146z M255 11h90v1H255z M382 11h18v1H382z M418 11h18v1H418z M502 11h68v1H502z M29 12h70v1H29z M146 12h90v1H146z M255 12h90v1H255z M382 12h18v1H382z M418 12h18v1H418z M501 12h70v1H501z M27 13h74v1H27z M146 13h90v1H146z M255 13h90v1H255z M382 13h18v1H382z M418 13h18v1H418z M499 13h74v1H499z M26 14h76v1H26z M146 14h90v1H146z M255 14h90v1H255z M382 14h18v1H382z M418 14h18v1H418z M498 14h76v1H498z M25 15h78v1H25z M146 15h90v1H146z M255 15h90v1H255z M382 15h18v1H382z M418 15h18v1H418z M497 15h78v1H497z M24 16h80v1H24z M146 16h90v1H146z M255 16h90v1H255z M382 16h18v1H382z M418 16h18v1H418z M496 16h80v1H496z M22 17h84v1H22z M146 17h90v1H146z M255 17h90v1H255z M382 17h18v1H382z M418 17h18v1H418z M494 17h84v1H494z M21 18h86v1H21z M164 18h18v1H164z M200 18h36v1H200z M291 18h36v1H291z M345 18h19v1H345z M382 18h36v1H382z M436 18h18v1H436z M493 18h86v1H493z M20 19h88v1H20z M164 19h18v1H164z M200 19h36v1H200z M291 19h36v1H291z M345 19h19v1H345z M382 19h36v1H382z M436 19h18v1H436z M492 19h88v1H492z M19 20h40v1H19z M69 20h40v1H69z M164 20h18v1H164z M200 20h36v1H200z M291 20h36v1H291z M345 20h19v1H345z M382 20h36v1H382z M436 20h18v1H436z M491 20h40v1H491z M541 20h40v1H541z M18 21h34v1H18z M75 21h35v1H75z M164 21h18v1H164z M200 21h36v1H200z M291 21h36v1H291z M345 21h19v1H345z M382 21h36v1H382z M436 21h18v1H436z M490 21h35v1H490z M548 21h34v1H548z M17 22h34v1H17z M77 22h33v1H77z M164 22h18v1H164z M200 22h36v1H200z M291 22h36v1H291z M345 22h19v1H345z M382 22h36v1H382z M436 22h18v1H436z M490 22h33v1H490z M549 22h34v1H549z M17 23h31v1H17z M80 23h31v1H80z M164 23h18v1H164z M200 23h36v1H200z M291 23h36v1H291z M345 23h19v1H345z M382 23h36v1H382z M436 23h18v1H436z M489 23h31v1H489z M552 23h31v1H552z M16 24h29v1H16z M83 24h29v1H83z M164 24h18v1H164z M200 24h36v1H200z M291 24h36v1H291z M345 24h19v1H345z M382 24h36v1H382z M436 24h18v1H436z M488 24h29v1H488z M555 24h29v1H555z M15 25h29v1H15z M84 25h29v1H84z M164 25h18v1H164z M200 25h36v1H200z M291 25h36v1H291z M345 25h19v1H345z M382 25h36v1H382z M436 25h18v1H436z M487 25h29v1H487z M556 25h29v1H556z M14 26h27v1H14z M86 26h27v1H86z M164 26h18v1H164z M200 26h36v1H200z M291 26h36v1H291z M345 26h19v1H345z M382 26h36v1H382z M436 26h18v1H436z M487 26h27v1H487z M559 26h27v1H559z M13 27h27v1H13z M88 27h27v1H88z M164 27h18v1H164z M200 27h36v1H200z M291 27h36v1H291z M345 27h19v1H345z M382 27h36v1H382z M436 27h18v1H436z M485 27h27v1H485z M560 27h27v1H560z M13 28h25v1H13z M90 28h25v1H90z M164 28h18v1H164z M200 28h36v1H200z M291 28h36v1H291z M345 28h19v1H345z M382 28h36v1H382z M436 28h18v1H436z M485 28h25v1H485z M562 28h25v1H562z M12 29h25v1H12z M91 29h25v1H91z M164 29h18v1H164z M200 29h36v1H200z M291 29h36v1H291z M345 29h19v1H345z M382 29h36v1H382z M436 29h18v1H436z M484 29h25v1H484z M563 29h25v1H563z M11 30h25v1H11z M92 30h24v1H92z M164 30h18v1H164z M200 30h36v1H200z M291 30h36v1H291z M345 30h19v1H345z M382 30h36v1H382z M436 30h18v1H436z M484 30h24v1H484z M564 30h25v1H564z M10 31h24v1H10z M93 31h24v1H93z M164 31h18v1H164z M200 31h36v1H200z M291 31h36v1H291z M345 31h19v1H345z M382 31h36v1H382z M436 31h18v1H436z M483 31h24v1H483z M566 31h24v1H566z M10 32h24v1H10z M94 32h23v1H94z M164 32h18v1H164z M200 32h36v1H200z M291 32h36v1H291z M345 32h19v1H345z M382 32h36v1H382z M436 32h18v1H436z M483 32h23v1H483z M566 32h24v1H566z M10 33h23v1H10z M95 33h23v1H95z M164 33h18v1H164z M200 33h36v1H200z M291 33h36v1H291z M345 33h19v1H345z M382 33h36v1H382z M436 33h18v1H436z M482 33h23v1H482z M567 33h23v1H567z M9 34h22v1H9z M96 34h23v1H96z M164 34h18v1H164z M200 34h36v1H200z M291 34h36v1H291z M345 34h19v1H345z M382 34h36v1H382z M436 34h18v1H436z M481 34h23v1H481z M569 34h22v1H569z M9 35h22v1H9z M97 35h22v1H97z M164 35h18v1H164z M200 35h36v1H200z M291 35h36v1H291z M345 35h19v1H345z M382 35h36v1H382z M436 35h18v1H436z M481 35h22v1H481z M569 35h22v1H569z M8 36h22v1H8z M98 36h22v1H98z M164 36h18v1H164z M200 36h36v1H200z M291 36h36v1H291z M345 36h19v1H345z M382 36h36v1H382z M436 36h18v1H436z M480 36h22v1H480z M570 36h22v1H570z M7 37h22v1H7z M57 37h13v1H57z M99 37h21v1H99z M164 37h18v1H164z M218 37h37v1H218z M273 37h18v1H273z M345 37h37v1H345z M400 37h18v1H400z M436 37h18v1H436z M480 37h21v1H480z M529 37h13v1H529z M571 37h22v1H571z M7 38h21v1H7z M53 38h21v1H53z M99 38h22v1H99z M164 38h18v1H164z M218 38h37v1H218z M273 38h18v1H273z M345 38h37v1H345z M400 38h18v1H400z M436 38h18v1H436z M479 38h22v1H479z M525 38h21v1H525z M572 38h21v1H572z M7 39h21v1H7z M52 39h23v1H52z M100 39h21v1H100z M164 39h18v1H164z M218 39h37v1H218z M273 39h18v1H273z M345 39h37v1H345z M400 39h18v1H400z M436 39h18v1H436z M479 39h21v1H479z M524 39h23v1H524z M572 39h21v1H572z M6 40h21v1H6z M50 40h27v1H50z M101 40h21v1H101z M164 40h18v1H164z M218 40h37v1H218z M273 40h18v1H273z M345 40h37v1H345z M400 40h18v1H400z M436 40h18v1H436z M478 40h21v1H478z M522 40h27v1H522z M573 40h21v1H573z M6 41h20v1H6z M48 41h31v1H48z M101 41h21v1H101z M164 41h18v1H164z M218 41h37v1H218z M273 41h18v1H273z M345 41h37v1H345z M400 41h18v1H400z M436 41h18v1H436z M478 41h20v1H478z M520 41h31v1H520z M574 41h20v1H574z M6 42h20v1H6z M47 42h32v1H47z M102 42h20v1H102z M164 42h18v1H164z M218 42h37v1H218z M273 42h18v1H273z M345 42h37v1H345z M400 42h18v1H400z M436 42h18v1H436z M478 42h20v1H478z M519 42h33v1H519z M574 42h20v1H574z M5 43h21v1H5z M45 43h36v1H45z M102 43h21v1H102z M164 43h18v1H164z M218 43h37v1H218z M273 43h18v1H273z M345 43h37v1H345z M400 43h18v1H400z M436 43h18v1H436z M477 43h21v1H477z M518 43h35v1H518z M574 43h21v1H574z M4 44h21v1H4z M44 44h38v1H44z M103 44h20v1H103z M164 44h18v1H164z M218 44h37v1H218z M273 44h18v1H273z M345 44h37v1H345z M400 44h18v1H400z M436 44h18v1H436z M477 44h20v1H477z M516 44h39v1H516z M575 44h21v1H575z M4 45h20v1H4z M43 45h41v1H43z M103 45h20v1H103z M164 45h18v1H164z M218 45h37v1H218z M273 45h18v1H273z M345 45h37v1H345z M400 45h18v1H400z M436 45h18v1H436z M477 45h20v1H477z M515 45h41v1H515z M576 45h20v1H576z M4 46h20v1H4z M43 46h41v1H43z M104 46h20v1H104z M164 46h18v1H164z M218 46h37v1H218z M273 46h18v1H273z M345 46h37v1H345z M400 46h18v1H400z M436 46h18v1H436z M476 46h20v1H476z M515 46h41v1H515z M576 46h20v1H576z M4 47h20v1H4z M42 47h43v1H42z M104 47h20v1H104z M164 47h18v1H164z M218 47h37v1H218z M273 47h18v1H273z M345 47h37v1H345z M400 47h18v1H400z M436 47h18v1H436z M476 47h20v1H476z M514 47h43v1H514z M576 47h20v1H576z M3 48h20v1H3z M41 48h45v1H41z M105 48h20v1H105z M164 48h18v1H164z M218 48h37v1H218z M273 48h18v1H273z M345 48h37v1H345z M400 48h18v1H400z M436 48h18v1H436z M475 48h20v1H475z M514 48h44v1H514z M577 48h20v1H577z M3 49h20v1H3z M41 49h45v1H41z M105 49h20v1H105z M164 49h18v1H164z M218 49h37v1H218z M273 49h18v1H273z M345 49h37v1H345z M400 49h18v1H400z M436 49h18v1H436z M475 49h20v1H475z M513 49h45v1H513z M577 49h20v1H577z M3 50h20v1H3z M40 50h46v1H40z M105 50h20v1H105z M164 50h18v1H164z M218 50h37v1H218z M273 50h18v1H273z M345 50h37v1H345z M400 50h18v1H400z M436 50h18v1H436z M475 50h20v1H475z M512 50h47v1H512z M577 50h20v1H577z M3 51h19v1H3z M40 51h47v1H40z M106 51h19v1H106z M164 51h18v1H164z M218 51h37v1H218z M273 51h18v1H273z M345 51h37v1H345z M400 51h18v1H400z M436 51h18v1H436z M475 51h19v1H475z M512 51h47v1H512z M578 51h19v1H578z M3 52h18v1H3z M39 52h49v1H39z M106 52h19v1H106z M164 52h18v1H164z M218 52h37v1H218z M273 52h18v1H273z M345 52h37v1H345z M400 52h18v1H400z M436 52h18v1H436z M475 52h19v1H475z M511 52h49v1H511z M578 52h19v1H578z M3 53h18v1H3z M38 53h50v1H38z M106 53h19v1H106z M164 53h18v1H164z M218 53h37v1H218z M273 53h18v1H273z M345 53h37v1H345z M400 53h18v1H400z M436 53h18v1H436z M475 53h19v1H475z M511 53h49v1H511z M579 53h18v1H579z M2 54h19v1H2z M38 54h51v1H38z M106 54h20v1H106z M164 54h18v1H164z M218 54h37v1H218z M273 54h18v1H273z M345 54h37v1H345z M400 54h18v1H400z M436 54h18v1H436z M474 54h20v1H474z M511 54h50v1H511z M579 54h19v1H579z M2 55h19v1H2z M38 55h51v1H38z M107 55h19v1H107z M146 55h36v1H146z M200 55h36v1H200z M255 55h36v1H255z M309 55h91v1H309z M474 55h19v1H474z M510 55h51v1H510z M579 55h19v1H579z M2 56h19v1H2z M38 56h51v1H38z M107 56h19v1H107z M146 56h36v1H146z M200 56h36v1H200z M255 56h36v1H255z M309 56h91v1H309z M474 56h19v1H474z M510 56h52v1H510z M579 56h19v1H579z M2 57h19v1H2z M37 57h52v1H37z M107 57h19v1H107z M146 57h36v1H146z M200 57h36v1H200z M255 57h36v1H255z M309 57h91v1H309z M474 57h19v1H474z M509 57h53v1H509z M579 57h19v1H579z M2 58h19v1H2z M37 58h52v1H37z M107 58h19v1H107z M146 58h36v1H146z M200 58h36v1H200z M255 58h36v1H255z M309 58h91v1H309z M474 58h19v1H474z M509 58h53v1H509z M579 58h19v1H579z M1 59h19v1H1z M37 59h53v1H37z M108 59h18v1H108z M146 59h36v1H146z M200 59h36v1H200z M255 59h36v1H255z M309 59h91v1H309z M474 59h18v1H474z M509 59h53v1H509z M580 59h19v1H580z M1 60h19v1H1z M37 60h53v1H37z M108 60h18v1H108z M146 60h36v1H146z M200 60h36v1H200z M255 60h36v1H255z M309 60h91v1H309z M474 60h18v1H474z M509 60h53v1H509z M580 60h19v1H580z M1 61h19v1H1z M37 61h53v1H37z M108 61h18v1H108z M146 61h36v1H146z M200 61h36v1H200z M255 61h36v1H255z M309 61h91v1H309z M474 61h18v1H474z M509 61h53v1H509z M580 61h19v1H580z M1 62h19v1H1z M37 62h53v1H37z M108 62h18v1H108z M146 62h36v1H146z M200 62h36v1H200z M255 62h36v1H255z M309 62h91v1H309z M474 62h18v1H474z M509 62h53v1H509z M580 62h19v1H580z M1 63h19v1H1z M37 63h53v1H37z M108 63h18v1H108z M146 63h36v1H146z M200 63h36v1H200z M255 63h36v1H255z M309 63h91v1H309z M474 63h18v1H474z M509 63h53v1H509z M580 63h19v1H580z M1 64h19v1H1z M37 64h53v1H37z M108 64h18v1H108z M146 64h36v1H146z M200 64h36v1H200z M255 64h36v1H255z M309 64h91v1H309z M474 64h18v1H474z M509 64h53v1H509z M580 64h19v1H580z M1 65h19v1H1z M37 65h53v1H37z M108 65h18v1H108z M146 65h36v1H146z M200 65h36v1H200z M255 65h36v1H255z M309 65h91v1H309z M474 65h18v1H474z M509 65h53v1H509z M580 65h19v1H580z M1 66h19v1H1z M37 66h53v1H37z M108 66h18v1H108z M146 66h36v1H146z M200 66h36v1H200z M255 66h36v1H255z M309 66h91v1H309z M474 66h18v1H474z M509 66h53v1H509z M580 66h19v1H580z M1 67h19v1H1z M37 67h53v1H37z M108 67h18v1H108z M146 67h36v1H146z M200 67h36v1H200z M255 67h36v1H255z M309 67h91v1H309z M474 67h18v1H474z M509 67h53v1H509z M580 67h19v1H580z M1 68h19v1H1z M37 68h52v1H37z M107 68h19v1H107z M146 68h36v1H146z M200 68h36v1H200z M255 68h36v1H255z M309 68h91v1H309z M474 68h18v1H474z M509 68h53v1H509z M579 68h20v1H579z M2 69h19v1H2z M37 69h52v1H37z M107 69h19v1H107z M146 69h36v1H146z M200 69h36v1H200z M255 69h36v1H255z M309 69h91v1H309z M474 69h19v1H474z M509 69h53v1H509z M579 69h19v1H579z M2 70h19v1H2z M38 70h51v1H38z M107 70h19v1H107z M146 70h36v1H146z M200 70h36v1H200z M255 70h36v1H255z M309 70h91v1H309z M474 70h19v1H474z M510 70h52v1H510z M579 70h19v1H579z M2 71h19v1H2z M38 71h51v1H38z M107 71h19v1H107z M146 71h36v1H146z M200 71h36v1H200z M255 71h36v1H255z M309 71h91v1H309z M474 71h19v1H474z M510 71h51v1H510z M579 71h19v1H579z M2 72h19v1H2z M38 72h50v1H38z M106 72h20v1H106z M146 72h36v1H146z M200 72h36v1H200z M255 72h36v1H255z M309 72h91v1H309z M474 72h20v1H474z M511 72h49v1H511z M579 72h19v1H579z M2 73h19v1H2z M38 73h50v1H38z M106 73h20v1H106z M146 73h18v1H146z M182 73h18v1H182z M255 73h18v1H255z M309 73h73v1H309z M436 73h18v1H436z M474 73h20v1H474z M511 73h49v1H511z M579 73h19v1H579z M3 74h18v1H3z M39 74h49v1H39z M106 74h19v1H106z M146 74h18v1H146z M182 74h18v1H182z M255 74h18v1H255z M309 74h73v1H309z M436 74h18v1H436z M475 74h19v1H475z M511 74h49v1H511z M579 74h18v1H579z M3 75h19v1H3z M40 75h47v1H40z M106 75h19v1H106z M146 75h18v1H146z M182 75h18v1H182z M255 75h18v1H255z M309 75h73v1H309z M436 75h18v1H436z M475 75h19v1H475z M512 75h47v1H512z M578 75h19v1H578z M3 76h19v1H3z M40 76h46v1H40z M106 76h19v1H106z M146 76h18v1H146z M182 76h18v1H182z M255 76h18v1H255z M309 76h73v1H309z M436 76h18v1H436z M475 76h19v1H475z M512 76h47v1H512z M578 76h19v1H578z M3 77h20v1H3z M41 77h45v1H41z M105 77h20v1H105z M146 77h18v1H146z M182 77h18v1H182z M255 77h18v1H255z M309 77h73v1H309z M436 77h18v1H436z M475 77h20v1H475z M513 77h45v1H513z M577 77h20v1H577z M3 78h20v1H3z M41 78h44v1H41z M105 78h20v1H105z M146 78h18v1H146z M182 78h18v1H182z M255 78h18v1H255z M309 78h73v1H309z M436 78h18v1H436z M475 78h20v1H475z M514 78h43v1H514z M577 78h20v1H577z M4 79h19v1H4z M43 79h42v1H43z M105 79h19v1H105z M146 79h18v1H146z M182 79h18v1H182z M255 79h18v1H255z M309 79h73v1H309z M436 79h18v1H436z M476 79h19v1H476z M515 79h42v1H515z M577 79h19v1H577z M4 80h20v1H4z M43 80h41v1H43z M104 80h20v1H104z M146 80h18v1H146z M182 80h18v1H182z M255 80h18v1H255z M309 80h73v1H309z M436 80h18v1H436z M476 80h20v1H476z M515 80h41v1H515z M576 80h20v1H576z M4 81h20v1H4z M44 81h39v1H44z M104 81h20v1H104z M146 81h18v1H146z M182 81h18v1H182z M255 81h18v1H255z M309 81h73v1H309z M436 81h18v1H436z M476 81h20v1H476z M516 81h39v1H516z M576 81h20v1H576z M4 82h20v1H4z M45 82h37v1H45z M103 82h20v1H103z M146 82h18v1H146z M182 82h18v1H182z M255 82h18v1H255z M309 82h73v1H309z M436 82h18v1H436z M477 82h20v1H477z M517 82h37v1H517z M576 82h20v1H576z M4 83h21v1H4z M45 83h36v1H45z M103 83h20v1H103z M146 83h18v1H146z M182 83h18v1H182z M255 83h18v1H255z M309 83h73v1H309z M436 83h18v1H436z M477 83h20v1H477z M518 83h35v1H518z M575 83h21v1H575z M5 84h21v1H5z M47 84h33v1H47z M102 84h21v1H102z M146 84h18v1H146z M182 84h18v1H182z M255 84h18v1H255z M309 84h73v1H309z M436 84h18v1H436z M477 84h21v1H477z M519 84h33v1H519z M574 84h21v1H574z M6 85h20v1H6z M48 85h30v1H48z M102 85h20v1H102z M146 85h18v1H146z M182 85h18v1H182z M255 85h18v1H255z M309 85h73v1H309z M436 85h18v1H436z M478 85h20v1H478z M521 85h29v1H521z M574 85h20v1H574z M6 86h21v1H6z M51 86h25v1H51z M101 86h21v1H101z M146 86h18v1H146z M182 86h18v1H182z M255 86h18v1H255z M309 86h73v1H309z M436 86h18v1H436z M478 86h21v1H478z M523 86h26v1H523z M573 86h21v1H573z M6 87h21v1H6z M52 87h23v1H52z M101 87h21v1H101z M146 87h18v1H146z M182 87h18v1H182z M255 87h18v1H255z M309 87h73v1H309z M436 87h18v1H436z M478 87h21v1H478z M524 87h24v1H524z M573 87h21v1H573z M7 88h21v1H7z M54 88h18v1H54z M100 88h21v1H100z M146 88h18v1H146z M182 88h18v1H182z M255 88h18v1H255z M309 88h73v1H309z M436 88h18v1H436z M479 88h21v1H479z M526 88h19v1H526z M572 88h21v1H572z M7 89h21v1H7z M59 89h9v1H59z M99 89h21v1H99z M146 89h18v1H146z M182 89h18v1H182z M255 89h18v1H255z M309 89h73v1H309z M436 89h18v1H436z M480 89h21v1H480z M531 89h9v1H531z M572 89h21v1H572z M7 90h22v1H7z M99 90h21v1H99z M146 90h18v1H146z M182 90h18v1H182z M255 90h18v1H255z M309 90h73v1H309z M436 90h18v1H436z M480 90h21v1H480z M571 90h22v1H571z M8 91h22v1H8z M98 91h22v1H98z M146 91h36v1H146z M218 91h37v1H218z M291 91h18v1H291z M345 91h19v1H345z M480 91h22v1H480z M570 91h22v1H570z M9 92h22v1H9z M96 92h23v1H96z M146 92h36v1H146z M218 92h37v1H218z M291 92h18v1H291z M345 92h19v1H345z M481 92h22v1H481z M569 92h22v1H569z M9 93h23v1H9z M96 93h23v1H96z M146 93h36v1H146z M218 93h37v1H218z M291 93h18v1H291z M345 93h19v1H345z M481 93h23v1H481z M568 93h23v1H568z M10 94h23v1H10z M95 94h23v1H95z M146 94h36v1H146z M218 94h37v1H218z M291 94h18v1H291z M345 94h19v1H345z M482 94h23v1H482z M567 94h23v1H567z M10 95h24v1H10z M94 95h23v1H94z M146 95h36v1H146z M218 95h37v1H218z M291 95h18v1H291z M345 95h19v1H345z M483 95h23v1H483z M566 95h24v1H566z M11 96h24v1H11z M92 96h25v1H92z M146 96h36v1H146z M218 96h37v1H218z M291 96h18v1H291z M345 96h19v1H345z M483 96h25v1H483z M565 96h24v1H565z M11 97h25v1H11z M92 97h24v1H92z M146 97h36v1H146z M218 97h37v1H218z M291 97h18v1H291z M345 97h19v1H345z M484 97h24v1H484z M564 97h25v1H564z M12 98h25v1H12z M91 98h25v1H91z M146 98h36v1H146z M218 98h37v1H218z M291 98h18v1H291z M345 98h19v1H345z M484 98h25v1H484z M563 98h25v1H563z M13 99h26v1H13z M89 99h26v1H89z M146 99h36v1H146z M218 99h37v1H218z M291 99h18v1H291z M345 99h19v1H345z M485 99h26v1H485z M561 99h26v1H561z M13 100h27v1H13z M88 100h27v1H88z M146 100h36v1H146z M218 100h37v1H218z M291 100h18v1H291z M345 100h19v1H345z M485 100h27v1H485z M560 100h27v1H560z M14 101h28v1H14z M86 101h27v1H86z M146 101h36v1H146z M218 101h37v1H218z M291 101h18v1H291z M345 101h19v1H345z M487 101h27v1H487z M558 101h28v1H558z M15 102h29v1H15z M84 102h29v1H84z M146 102h36v1H146z M218 102h37v1H218z M291 102h18v1H291z M345 102h19v1H345z M487 102h29v1H487z M556 102h29v1H556z M16 103h30v1H16z M82 103h30v1H82z M146 103h36v1H146z M218 103h37v1H218z M291 103h18v1H291z M345 103h19v1H345z M488 103h30v1H488z M554 103h30v1H554z M17 104h31v1H17z M80 104h31v1H80z M146 104h36v1H146z M218 104h37v1H218z M291 104h18v1H291z M345 104h19v1H345z M489 104h30v1H489z M552 104h31v1H552z M17 105h34v1H17z M77 105h33v1H77z M146 105h36v1H146z M218 105h37v1H218z M291 105h18v1H291z M345 105h19v1H345z M490 105h33v1H490z M549 105h34v1H549z M18 106h37v1H18z M72 106h37v1H72z M146 106h36v1H146z M218 106h37v1H218z M291 106h18v1H291z M345 106h19v1H345z M491 106h37v1H491z M545 106h37v1H545z M19 107h40v1H19z M68 107h41v1H68z M146 107h36v1H146z M218 107h37v1H218z M291 107h18v1H291z M345 107h19v1H345z M491 107h40v1H491z M541 107h40v1H541z M20 108h88v1H20z M146 108h36v1H146z M218 108h37v1H218z M291 108h18v1H291z M345 108h19v1H345z M492 108h88v1H492z M21 109h85v1H21z M146 109h18v1H146z M182 109h18v1H182z M218 109h18v1H218z M255 109h18v1H255z M291 109h18v1H291z M327 109h18v1H327z M364 109h18v1H364z M400 109h18v1H400z M436 109h18v1H436z M494 109h85v1H494z M23 110h82v1H23z M146 110h18v1H146z M182 110h18v1H182z M218 110h18v1H218z M255 110h18v1H255z M291 110h18v1H291z M327 110h18v1H327z M364 110h18v1H364z M400 110h18v1H400z M436 110h18v1H436z M495 110h82v1H495z M24 111h80v1H24z M146 111h18v1H146z M182 111h18v1H182z M218 111h18v1H218z M255 111h18v1H255z M291 111h18v1H291z M327 111h18v1H327z M364 111h18v1H364z M400 111h18v1H400z M436 111h18v1H436z M496 111h80v1H496z M25 112h78v1H25z M146 112h18v1H146z M182 112h18v1H182z M218 112h18v1H218z M255 112h18v1H255z M291 112h18v1H291z M327 112h18v1H327z M364 112h18v1H364z M400 112h18v1H400z M436 112h18v1H436z M497 112h78v1H497z M27 113h74v1H27z M146 113h18v1H146z M182 113h18v1H182z M218 113h18v1H218z M255 113h18v1H255z M291 113h18v1H291z M327 113h18v1H327z M364 113h18v1H364z M400 113h18v1H400z M436 113h18v1H436z M499 113h74v1H499z M27 114h74v1H27z M146 114h18v1H146z M182 114h18v1H182z M218 114h18v1H218z M255 114h18v1H255z M291 114h18v1H291z M327 114h18v1H327z M364 114h18v1H364z M400 114h18v1H400z M436 114h18v1H436z M499 114h74v1H499z M29 115h70v1H29z M146 115h18v1H146z M182 115h18v1H182z M218 115h18v1H218z M255 115h18v1H255z M291 115h18v1H291z M327 115h18v1H327z M364 115h18v1H364z M400 115h18v1H400z M436 115h18v1H436z M501 115h70v1H501z M31 116h66v1H31z M146 116h18v1H146z M182 116h18v1H182z M218 116h18v1H218z M255 116h18v1H255z M291 116h18v1H291z M327 116h18v1H327z M364 116h18v1H364z M400 116h18v1H400z M436 116h18v1H436z M503 116h66v1H503z M33 117h62v1H33z M146 117h18v1H146z M182 117h18v1H182z M218 117h18v1H218z M255 117h18v1H255z M291 117h18v1H291z M327 117h18v1H327z M364 117h18v1H364z M400 117h18v1H400z M436 117h18v1H436z M505 117h62v1H505z M34 118h60v1H34z M146 118h18v1H146z M182 118h18v1H182z M218 118h18v1H218z M255 118h18v1H255z M291 118h18v1H291z M327 118h18v1H327z M364 118h18v1H364z M400 118h18v1H400z M436 118h18v1H436z M506 118h60v1H506z M36 119h56v1H36z M146 119h18v1H146z M182 119h18v1H182z M218 119h18v1H218z M255 119h18v1H255z M291 119h18v1H291z M327 119h18v1H327z M364 119h18v1H364z M400 119h18v1H400z M436 119h18v1H436z M508 119h56v1H508z M38 120h51v1H38z M146 120h18v1H146z M182 120h18v1H182z M218 120h18v1H218z M255 120h18v1H255z M291 120h18v1H291z M327 120h18v1H327z M364 120h18v1H364z M400 120h18v1H400z M436 120h18v1H436z M511 120h51v1H511z M40 121h48v1H40z M146 121h18v1H146z M182 121h18v1H182z M218 121h18v1H218z M255 121h18v1H255z M291 121h18v1H291z M327 121h18v1H327z M364 121h18v1H364z M400 121h18v1H400z M436 121h18v1H436z M512 121h48v1H512z M43 122h42v1H43z M146 122h18v1H146z M182 122h18v1H182z M218 122h18v1H218z M255 122h18v1H255z M291 122h18v1H291z M327 122h18v1H327z M364 122h18v1H364z M400 122h18v1H400z M436 122h18v1H436z M515 122h42v1H515z M46 123h36v1H46z M146 123h18v1H146z M182 123h18v1H182z M218 123h18v1H218z M255 123h18v1H255z M291 123h18v1H291z M327 123h18v1H327z M364 123h18v1H364z M400 123h18v1H400z M436 123h18v1H436z M518 123h36v1H518z M48 124h31v1H48z M146 124h18v1H146z M182 124h18v1H182z M218 124h18v1H218z M255 124h18v1H255z M291 124h18v1H291z M327 124h18v1H327z M364 124h18v1H364z M400 124h18v1H400z M436 124h18v1H436z M521 124h31v1H521z M54 125h20v1H54z M146 125h18v1H146z M182 125h18v1H182z M218 125h18v1H218z M255 125h18v1H255z M291 125h18v1H291z M327 125h18v1H327z M364 125h18v1H364z M400 125h18v1H400z M436 125h18v1H436z M526 125h20v1H526z M146 126h18v1H146z M182 126h18v1H182z M218 126h18v1H218z M255 126h18v1H255z M291 126h18v1H291z M327 126h18v1H327z M364 126h18v1H364z M400 126h18v1H400z M436 126h18v1H436z M146 127h18v1H146z M182 127h36v1H182z M273 127h72v1H273z M382 127h18v1H382z M436 127h18v1H436z M146 128h18v1H146z M182 128h36v1H182z M273 128h72v1H273z M382 128h18v1H382z M436 128h18v1H436z M146 129h18v1H146z M182 129h36v1H182z M273 129h72v1H273z M382 129h18v1H382z M436 129h18v1H436z M146 130h18v1H146z M182 130h36v1H182z M273 130h72v1H273z M382 130h18v1H382z M436 130h18v1H436z M146 131h18v1H146z M182 131h36v1H182z M273 131h72v1H273z M382 131h18v1H382z M436 131h18v1H436z M146 132h18v1H146z M182 132h36v1H182z M273 132h72v1H273z M382 132h18v1H382z M436 132h18v1H436z M146 133h18v1H146z M182 133h36v1H182z M273 133h72v1H273z M382 133h18v1H382z M436 133h18v1H436z M146 134h18v1H146z M182 134h36v1H182z M273 134h72v1H273z M382 134h18v1H382z M436 134h18v1H436z M146 135h18v1H146z M182 135h36v1H182z M273 135h72v1H273z M382 135h18v1H382z M436 135h18v1H436z M146 136h18v1H146z M182 136h36v1H182z M273 136h72v1H273z M382 136h18v1H382z M436 136h18v1H436z M146 137h18v1H146z M182 137h36v1H182z M273 137h72v1H273z M382 137h18v1H382z M436 137h18v1H436z M146 138h18v1H146z M182 138h36v1H182z M273 138h72v1H273z M382 138h18v1H382z M436 138h18v1H436z M146 139h18v1H146z M182 139h36v1H182z M273 139h72v1H273z M382 139h18v1H382z M436 139h18v1H436z M146 140h18v1H146z M182 140h36v1H182z M273 140h72v1H273z M382 140h18v1H382z M436 140h18v1H436z M146 141h18v1H146z M182 141h36v1H182z M273 141h72v1H273z M382 141h18v1H382z M436 141h18v1H436z M146 142h18v1H146z M182 142h36v1H182z M273 142h72v1H273z M382 142h18v1H382z M436 142h18v1H436z M146 143h18v1H146z M182 143h36v1H182z M273 143h72v1H273z M382 143h18v1H382z M436 143h18v1H436z M146 144h18v1H146z M182 144h36v1H182z M273 144h72v1H273z M382 144h18v1H382z M436 144h18v1H436z M146 145h18v1H146z M182 145h36v1H182z M273 145h72v1H273z M382 145h18v1H382z M436 145h18v1H436z M0 146h18v1H0z M73 146h18v1H73z M109 146h73v1H109z M200 146h36v1H200z M309 146h109v1H309z M436 146h109v1H436z M582 146h18v1H582z M0 147h18v1H0z M73 147h18v1H73z M109 147h73v1H109z M200 147h36v1H200z M309 147h109v1H309z M436 147h109v1H436z M582 147h18v1H582z M0 148h18v1H0z M73 148h18v1H73z M109 148h73v1H109z M200 148h36v1H200z M309 148h109v1H309z M436 148h109v1H436z M582 148h18v1H582z M0 149h18v1H0z M73 149h18v1H73z M109 149h73v1H109z M200 149h36v1H200z M309 149h109v1H309z M436 149h109v1H436z M582 149h18v1H582z M0 150h18v1H0z M73 150h18v1H73z M109 150h73v1H109z M200 150h36v1H200z M309 150h109v1H309z M436 150h109v1H436z M582 150h18v1H582z M0 151h18v1H0z M73 151h18v1H73z M109 151h73v1H109z M200 151h36v1H200z M309 151h109v1H309z M436 151h109v1H436z M582 151h18v1H582z M0 152h18v1H0z M73 152h18v1H73z M109 152h73v1H109z M200 152h36v1H200z M309 152h109v1H309z M436 152h109v1H436z M582 152h18v1H582z M0 153h18v1H0z M73 153h18v1H73z M109 153h73v1H109z M200 153h36v1H200z M309 153h109v1H309z M436 153h109v1H436z M582 153h18v1H582z M0 154h18v1H0z M73 154h18v1H73z M109 154h73v1H109z M200 154h36v1H200z M309 154h109v1H309z M436 154h109v1H436z M582 154h18v1H582z M0 155h18v1H0z M73 155h18v1H73z M109 155h73v1H109z M200 155h36v1H200z M309 155h109v1H309z M436 155h109v1H436z M582 155h18v1H582z M0 156h18v1H0z M73 156h18v1H73z M109 156h73v1H109z M200 156h36v1H200z M309 156h109v1H309z M436 156h109v1H436z M582 156h18v1H582z M0 157h18v1H0z M73 157h18v1H73z M109 157h73v1H109z M200 157h36v1H200z M309 157h109v1H309z M436 157h109v1H436z M582 157h18v1H582z M0 158h18v1H0z M73 158h18v1H73z M109 158h73v1H109z M200 158h36v1H200z M309 158h109v1H309z M436 158h109v1H436z M582 158h18v1H582z M0 159h18v1H0z M73 159h18v1H73z M109 159h73v1H109z M200 159h36v1H200z M309 159h109v1H309z M436 159h109v1H436z M582 159h18v1H582z M0 160h18v1H0z M73 160h18v1H73z M109 160h73v1H109z M200 160h36v1H200z M309 160h109v1H309z M436 160h109v1H436z M582 160h18v1H582z M0 161h18v1H0z M73 161h18v1H73z M109 161h73v1H109z M200 161h36v1H200z M309 161h109v1H309z M436 161h109v1H436z M582 161h18v1H582z M0 162h18v1H0z M73 162h18v1H73z M109 162h73v1H109z M200 162h36v1H200z M309 162h109v1H309z M436 162h109v1H436z M582 162h18v1H582z M0 163h18v1H0z M73 163h18v1H73z M109 163h73v1H109z M200 163h36v1H200z M309 163h109v1H309z M436 163h109v1H436z M582 163h18v1H582z M18 164h19v1H18z M91 164h18v1H91z M200 164h18v1H200z M236 164h73v1H236z M327 164h18v1H327z M400 164h73v1H400z M527 164h55v1H527z M18 165h19v1H18z M91 165h18v1H91z M200 165h18v1H200z M236 165h73v1H236z M327 165h18v1H327z M400 165h73v1H400z M527 165h55v1H527z M18 166h19v1H18z M91 166h18v1H91z M200 166h18v1H200z M236 166h73v1H236z M327 166h18v1H327z M400 166h73v1H400z M527 166h55v1H527z M18 167h19v1H18z M91 167h18v1H91z M200 167h18v1H200z M236 167h73v1H236z M327 167h18v1H327z M400 167h73v1H400z M527 167h55v1H527z M18 168h19v1H18z M91 168h18v1H91z M200 168h18v1H200z M236 168h73v1H236z M327 168h18v1H327z M400 168h73v1H400z M527 168h55v1H527z M18 169h19v1H18z M91 169h18v1H91z M200 169h18v1H200z M236 169h73v1H236z M327 169h18v1H327z M400 169h73v1H400z M527 169h55v1H527z M18 170h19v1H18z M91 170h18v1H91z M200 170h18v1H200z M236 170h73v1H236z M327 170h18v1H327z M400 170h73v1H400z M527 170h55v1H527z M18 171h19v1H18z M91 171h18v1H91z M200 171h18v1H200z M236 171h73v1H236z M327 171h18v1H327z M400 171h73v1H400z M527 171h55v1H527z M18 172h19v1H18z M91 172h18v1H91z M200 172h18v1H200z M236 172h73v1H236z M327 172h18v1H327z M400 172h73v1H400z M527 172h55v1H527z M18 173h19v1H18z M91 173h18v1H91z M200 173h18v1H200z M236 173h73v1H236z M327 173h18v1H327z M400 173h73v1H400z M527 173h55v1H527z M18 174h19v1H18z M91 174h18v1H91z M200 174h18v1H200z M236 174h73v1H236z M327 174h18v1H327z M400 174h73v1H400z M527 174h55v1H527z M18 175h19v1H18z M91 175h18v1H91z M200 175h18v1H200z M236 175h73v1H236z M327 175h18v1H327z M400 175h73v1H400z M527 175h55v1H527z M18 176h19v1H18z M91 176h18v1H91z M200 176h18v1H200z M236 176h73v1H236z M327 176h18v1H327z M400 176h73v1H400z M527 176h55v1H527z M18 177h19v1H18z M91 177h18v1H91z M200 177h18v1H200z M236 177h73v1H236z M327 177h18v1H327z M400 177h73v1H400z M527 177h55v1H527z M18 178h19v1H18z M91 178h18v1H91z M200 178h18v1H200z M236 178h73v1H236z M327 178h18v1H327z M400 178h73v1H400z M527 178h55v1H527z M18 179h19v1H18z M91 179h18v1H91z M200 179h18v1H200z M236 179h73v1H236z M327 179h18v1H327z M400 179h73v1H400z M527 179h55v1H527z M18 180h19v1H18z M91 180h18v1H91z M200 180h18v1H200z M236 180h73v1H236z M327 180h18v1H327z M400 180h73v1H400z M527 180h55v1H527z M18 181h19v1H18z M91 181h18v1H91z M200 181h18v1H200z M236 181h73v1H236z M327 181h18v1H327z M400 181h73v1H400z M527 181h55v1H527z M18 182h37v1H18z M91 182h36v1H91z M182 182h36v1H182z M273 182h18v1H273z M309 182h18v1H309z M364 182h109v1H364z M527 182h18v1H527z M563 182h19v1H563z M18 183h37v1H18z M91 183h36v1H91z M182 183h36v1H182z M273 183h18v1H273z M309 183h18v1H309z M364 183h109v1H364z M527 183h18v1H527z M563 183h19v1H563z M18 184h37v1H18z M91 184h36v1H91z M182 184h36v1H182z M273 184h18v1H273z M309 184h18v1H309z M364 184h109v1H364z M527 184h18v1H527z M563 184h19v1H563z M18 185h37v1H18z M91 185h36v1H91z M182 185h36v1H182z M273 185h18v1H273z M309 185h18v1H309z M364 185h109v1H364z M527 185h18v1H527z M563 185h19v1H563z M18 186h37v1H18z M91 186h36v1H91z M182 186h36v1H182z M273 186h18v1H273z M309 186h18v1H309z M364 186h109v1H364z M527 186h18v1H527z M563 186h19v1H563z M18 187h37v1H18z M91 187h36v1H91z M182 187h36v1H182z M273 187h18v1H273z M309 187h18v1H309z M364 187h109v1H364z M527 187h18v1H527z M563 187h19v1H563z M18 188h37v1H18z M91 188h36v1H91z M182 188h36v1H182z M273 188h18v1H273z M309 188h18v1H309z M364 188h109v1H364z M527 188h18v1H527z M563 188h19v1H563z M18 189h37v1H18z M91 189h36v1H91z M182 189h36v1H182z M273 189h18v1H273z M309 189h18v1H309z M364 189h109v1H364z M527 189h18v1H527z M563 189h19v1H563z M18 190h37v1H18z M91 190h36v1H91z M182 190h36v1H182z M273 190h18v1H273z M309 190h18v1H309z M364 190h109v1H364z M527 190h18v1H527z M563 190h19v1H563z M18 191h37v1H18z M91 191h36v1H91z M182 191h36v1H182z M273 191h18v1H273z M309 191h18v1H309z M364 191h109v1H364z M527 191h18v1H527z M563 191h19v1H563z M18 192h37v1H18z M91 192h36v1H91z M182 192h36v1H182z M273 192h18v1H273z M309 192h18v1H309z M364 192h109v1H364z M527 192h18v1H527z M563 192h19v1H563z M18 193h37v1H18z M91 193h36v1H91z M182 193h36v1H182z M273 193h18v1H273z M309 193h18v1H309z M364 193h109v1H364z M527 193h18v1H527z M563 193h19v1H563z M18 194h37v1H18z M91 194h36v1H91z M182 194h36v1H182z M273 194h18v1H273z M309 194h18v1H309z M364 194h109v1H364z M527 194h18v1H527z M563 194h19v1H563z M18 195h37v1H18z M91 195h36v1H91z M182 195h36v1H182z M273 195h18v1H273z M309 195h18v1H309z M364 195h109v1H364z M527 195h18v1H527z M563 195h19v1H563z M18 196h37v1H18z M91 196h36v1H91z M182 196h36v1H182z M273 196h18v1H273z M309 196h18v1H309z M364 196h109v1H364z M527 196h18v1H527z M563 196h19v1H563z M18 197h37v1H18z M91 197h36v1H91z M182 197h36v1H182z M273 197h18v1H273z M309 197h18v1H309z M364 197h109v1H364z M527 197h18v1H527z M563 197h19v1H563z M18 198h37v1H18z M91 198h36v1H91z M182 198h36v1H182z M273 198h18v1H273z M309 198h18v1H309z M364 198h109v1H364z M527 198h18v1H527z M563 198h19v1H563z M18 199h37v1H18z M91 199h36v1H91z M182 199h36v1H182z M273 199h18v1H273z M309 199h18v1H309z M364 199h109v1H364z M527 199h18v1H527z M563 199h19v1H563z M37 200h18v1H37z M127 200h109v1H127z M255 200h18v1H255z M309 200h55v1H309z M382 200h18v1H382z M563 200h19v1H563z M37 201h18v1H37z M127 201h109v1H127z M255 201h18v1H255z M309 201h55v1H309z M382 201h18v1H382z M563 201h19v1H563z M37 202h18v1H37z M127 202h109v1H127z M255 202h18v1H255z M309 202h55v1H309z M382 202h18v1H382z M563 202h19v1H563z M37 203h18v1H37z M127 203h109v1H127z M255 203h18v1H255z M309 203h55v1H309z M382 203h18v1H382z M563 203h19v1H563z M37 204h18v1H37z M127 204h109v1H127z M255 204h18v1H255z M309 204h55v1H309z M382 204h18v1H382z M563 204h19v1H563z M37 205h18v1H37z M127 205h109v1H127z M255 205h18v1H255z M309 205h55v1H309z M382 205h18v1H382z M563 205h19v1H563z M37 206h18v1H37z M127 206h109v1H127z M255 206h18v1H255z M309 206h55v1H309z M382 206h18v1H382z M563 206h19v1H563z M37 207h18v1H37z M127 207h109v1H127z M255 207h18v1H255z M309 207h55v1H309z M382 207h18v1H382z M563 207h19v1H563z M37 208h18v1H37z M127 208h109v1H127z M255 208h18v1H255z M309 208h55v1H309z M382 208h18v1H382z M563 208h19v1H563z M37 209h18v1H37z M127 209h109v1H127z M255 209h18v1H255z M309 209h55v1H309z M382 209h18v1H382z M563 209h19v1H563z M37 210h18v1H37z M127 210h109v1H127z M255 210h18v1H255z M309 210h55v1H309z M382 210h18v1H382z M563 210h19v1H563z M37 211h18v1H37z M127 211h109v1H127z M255 211h18v1H255z M309 211h55v1H309z M382 211h18v1H382z M563 211h19v1H563z M37 212h18v1H37z M127 212h109v1H127z M255 212h18v1H255z M309 212h55v1H309z M382 212h18v1H382z M563 212h19v1H563z M37 213h18v1H37z M127 213h109v1H127z M255 213h18v1H255z M309 213h55v1H309z M382 213h18v1H382z M563 213h19v1H563z M37 214h18v1H37z M127 214h109v1H127z M255 214h18v1H255z M309 214h55v1H309z M382 214h18v1H382z M563 214h19v1H563z M37 215h18v1H37z M127 215h109v1H127z M255 215h18v1H255z M309 215h55v1H309z M382 215h18v1H382z M563 215h19v1H563z M37 216h18v1H37z M127 216h109v1H127z M255 216h18v1H255z M309 216h55v1H309z M382 216h18v1H382z M563 216h19v1H563z M37 217h18v1H37z M127 217h109v1H127z M255 217h18v1H255z M309 217h55v1H309z M382 217h18v1H382z M563 217h19v1H563z M0 218h18v1H0z M73 218h18v1H73z M109 218h37v1H109z M164 218h18v1H164z M200 218h18v1H200z M236 218h37v1H236z M327 218h55v1H327z M454 218h91v1H454z M563 218h19v1H563z M0 219h18v1H0z M73 219h18v1H73z M109 219h37v1H109z M164 219h18v1H164z M200 219h18v1H200z M236 219h37v1H236z M327 219h55v1H327z M454 219h91v1H454z M563 219h19v1H563z M0 220h18v1H0z M73 220h18v1H73z M109 220h37v1H109z M164 220h18v1H164z M200 220h18v1H200z M236 220h37v1H236z M327 220h55v1H327z M454 220h91v1H454z M563 220h19v1H563z M0 221h18v1H0z M73 221h18v1H73z M109 221h37v1H109z M164 221h18v1H164z M200 221h18v1H200z M236 221h37v1H236z M327 221h55v1H327z M454 221h91v1H454z M563 221h19v1H563z M0 222h18v1H0z M73 222h18v1H73z M109 222h37v1H109z M164 222h18v1H164z M200 222h18v1H200z M236 222h37v1H236z M327 222h55v1H327z M454 222h91v1H454z M563 222h19v1H563z M0 223h18v1H0z M73 223h18v1H73z M109 223h37v1H109z M164 223h18v1H164z M200 223h18v1H200z M236 223h37v1H236z M327 223h55v1H327z M454 223h91v1H454z M563 223h19v1H563z M0 224h18v1H0z M73 224h18v1H73z M109 224h37v1H109z M164 224h18v1H164z M200 224h18v1H200z M236 224h37v1H236z M327 224h55v1H327z M454 224h91v1H454z M563 224h19v1H563z M0 225h18v1H0z M73 225h18v1H73z M109 225h37v1H109z M164 225h18v1H164z M200 225h18v1H200z M236 225h37v1H236z M327 225h55v1H327z M454 225h91v1H454z M563 225h19v1H563z M0 226h18v1H0z M73 226h18v1H73z M109 226h37v1H109z M164 226h18v1H164z M200 226h18v1H200z M236 226h37v1H236z M327 226h55v1H327z M454 226h91v1H454z M563 226h19v1H563z M0 227h18v1H0z M73 227h18v1H73z M109 227h37v1H109z M164 227h18v1H164z M200 227h18v1H200z M236 227h37v1H236z M327 227h55v1H327z M454 227h91v1H454z M563 227h19v1H563z M0 228h18v1H0z M73 228h18v1H73z M109 228h37v1H109z M164 228h18v1H164z M200 228h18v1H200z M236 228h37v1H236z M327 228h55v1H327z M454 228h91v1H454z M563 228h19v1H563z M0 229h18v1H0z M73 229h18v1H73z M109 229h37v1H109z M164 229h18v1H164z M200 229h18v1H200z M236 229h37v1H236z M327 229h55v1H327z M454 229h91v1H454z M563 229h19v1H563z M0 230h18v1H0z M73 230h18v1H73z M109 230h37v1H109z M164 230h18v1H164z M200 230h18v1H200z M236 230h37v1H236z M327 230h55v1H327z M454 230h91v1H454z M563 230h19v1H563z M0 231h18v1H0z M73 231h18v1H73z M109 231h37v1H109z M164 231h18v1H164z M200 231h18v1H200z M236 231h37v1H236z M327 231h55v1H327z M454 231h91v1H454z M563 231h19v1H563z M0 232h18v1H0z M73 232h18v1H73z M109 232h37v1H109z M164 232h18v1H164z M200 232h18v1H200z M236 232h37v1H236z M327 232h55v1H327z M454 232h91v1H454z M563 232h19v1H563z M0 233h18v1H0z M73 233h18v1H73z M109 233h37v1H109z M164 233h18v1H164z M200 233h18v1H200z M236 233h37v1H236z M327 233h55v1H327z M454 233h91v1H454z M563 233h19v1H563z M0 234h18v1H0z M73 234h18v1H73z M109 234h37v1H109z M164 234h18v1H164z M200 234h18v1H200z M236 234h37v1H236z M327 234h55v1H327z M454 234h91v1H454z M563 234h19v1H563z M0 235h18v1H0z M73 235h18v1H73z M109 235h37v1H109z M164 235h18v1H164z M200 235h18v1H200z M236 235h37v1H236z M327 235h55v1H327z M454 235h91v1H454z M563 235h19v1H563z M0 236h55v1H0z M73 236h18v1H73z M127 236h19v1H127z M164 236h18v1H164z M200 236h18v1H200z M291 236h36v1H291z M345 236h19v1H345z M400 236h54v1H400z M527 236h36v1H527z M0 237h55v1H0z M73 237h18v1H73z M127 237h19v1H127z M164 237h18v1H164z M200 237h18v1H200z M291 237h36v1H291z M345 237h19v1H345z M400 237h54v1H400z M527 237h36v1H527z M0 238h55v1H0z M73 238h18v1H73z M127 238h19v1H127z M164 238h18v1H164z M200 238h18v1H200z M291 238h36v1H291z M345 238h19v1H345z M400 238h54v1H400z M527 238h36v1H527z M0 239h55v1H0z M73 239h18v1H73z M127 239h19v1H127z M164 239h18v1H164z M200 239h18v1H200z M291 239h36v1H291z M345 239h19v1H345z M400 239h54v1H400z M527 239h36v1H527z M0 240h55v1H0z M73 240h18v1H73z M127 240h19v1H127z M164 240h18v1H164z M200 240h18v1H200z M291 240h36v1H291z M345 240h19v1H345z M400 240h54v1H400z M527 240h36v1H527z M0 241h55v1H0z M73 241h18v1H73z M127 241h19v1H127z M164 241h18v1H164z M200 241h18v1H200z M291 241h36v1H291z M345 241h19v1H345z M400 241h54v1H400z M527 241h36v1H527z M0 242h55v1H0z M73 242h18v1H73z M127 242h19v1H127z M164 242h18v1H164z M200 242h18v1H200z M291 242h36v1H291z M345 242h19v1H345z M400 242h54v1H400z M527 242h36v1H527z M0 243h55v1H0z M73 243h18v1H73z M127 243h19v1H127z M164 243h18v1H164z M200 243h18v1H200z M291 243h36v1H291z M345 243h19v1H345z M400 243h54v1H400z M527 243h36v1H527z M0 244h55v1H0z M73 244h18v1H73z M127 244h19v1H127z M164 244h18v1H164z M200 244h18v1H200z M291 244h36v1H291z M345 244h19v1H345z M400 244h54v1H400z M527 244h36v1H527z M0 245h55v1H0z M73 245h18v1H73z M127 245h19v1H127z M164 245h18v1H164z M200 245h18v1H200z M291 245h36v1H291z M345 245h19v1H345z M400 245h54v1H400z M527 245h36v1H527z M0 246h55v1H0z M73 246h18v1H73z M127 246h19v1H127z M164 246h18v1H164z M200 246h18v1H200z M291 246h36v1H291z M345 246h19v1H345z M400 246h54v1H400z M527 246h36v1H527z M0 247h55v1H0z M73 247h18v1H73z M127 247h19v1H127z M164 247h18v1H164z M200 247h18v1H200z M291 247h36v1H291z M345 247h19v1H345z M400 247h54v1H400z M527 247h36v1H527z M0 248h55v1H0z M73 248h18v1H73z M127 248h19v1H127z M164 248h18v1H164z M200 248h18v1H200z M291 248h36v1H291z M345 248h19v1H345z M400 248h54v1H400z M527 248h36v1H527z M0 249h55v1H0z M73 249h18v1H73z M127 249h19v1H127z M164 249h18v1H164z M200 249h18v1H200z M291 249h36v1H291z M345 249h19v1H345z M400 249h54v1H400z M527 249h36v1H527z M0 250h55v1H0z M73 250h18v1H73z M127 250h19v1H127z M164 250h18v1H164z M200 250h18v1H200z M291 250h36v1H291z M345 250h19v1H345z M400 250h54v1H400z M527 250h36v1H527z M0 251h55v1H0z M73 251h18v1H73z M127 251h19v1H127z M164 251h18v1H164z M200 251h18v1H200z M291 251h36v1H291z M345 251h19v1H345z M400 251h54v1H400z M527 251h36v1H527z M0 252h55v1H0z M73 252h18v1H73z M127 252h19v1H127z M164 252h18v1H164z M200 252h18v1H200z M291 252h36v1H291z M345 252h19v1H345z M400 252h54v1H400z M527 252h36v1H527z M0 253h55v1H0z M73 253h18v1H73z M127 253h19v1H127z M164 253h18v1H164z M200 253h18v1H200z M291 253h36v1H291z M345 253h19v1H345z M400 253h54v1H400z M527 253h36v1H527z M0 254h55v1H0z M73 254h18v1H73z M127 254h19v1H127z M164 254h18v1H164z M200 254h18v1H200z M291 254h36v1H291z M345 254h19v1H345z M400 254h54v1H400z M527 254h36v1H527z M18 255h19v1H18z M91 255h36v1H91z M164 255h72v1H164z M255 255h18v1H255z M291 255h18v1H291z M327 255h37v1H327z M382 255h54v1H382z M454 255h55v1H454z M527 255h18v1H527z M563 255h19v1H563z M18 256h19v1H18z M91 256h36v1H91z M164 256h72v1H164z M255 256h18v1H255z M291 256h18v1H291z M327 256h37v1H327z M382 256h54v1H382z M454 256h55v1H454z M527 256h18v1H527z M563 256h19v1H563z M18 257h19v1H18z M91 257h36v1H91z M164 257h72v1H164z M255 257h18v1H255z M291 257h18v1H291z M327 257h37v1H327z M382 257h54v1H382z M454 257h55v1H454z M527 257h18v1H527z M563 257h19v1H563z M18 258h19v1H18z M91 258h36v1H91z M164 258h72v1H164z M255 258h18v1H255z M291 258h18v1H291z M327 258h37v1H327z M382 258h54v1H382z M454 258h55v1H454z M527 258h18v1H527z M563 258h19v1H563z M18 259h19v1H18z M91 259h36v1H91z M164 259h72v1H164z M255 259h18v1H255z M291 259h18v1H291z M327 259h37v1H327z M382 259h54v1H382z M454 259h55v1H454z M527 259h18v1H527z M563 259h19v1H563z M18 260h19v1H18z M91 260h36v1H91z M164 260h72v1H164z M255 260h18v1H255z M291 260h18v1H291z M327 260h37v1H327z M382 260h54v1H382z M454 260h55v1H454z M527 260h18v1H527z M563 260h19v1H563z M18 261h19v1H18z M91 261h36v1H91z M164 261h72v1H164z M255 261h18v1H255z M291 261h18v1H291z M327 261h37v1H327z M382 261h54v1H382z M454 261h55v1H454z M527 261h18v1H527z M563 261h19v1H563z M18 262h19v1H18z M91 262h36v1H91z M164 262h72v1H164z M255 262h18v1H255z M291 262h18v1H291z M327 262h37v1H327z M382 262h54v1H382z M454 262h55v1H454z M527 262h18v1H527z M563 262h19v1H563z M18 263h19v1H18z M91 263h36v1H91z M164 263h72v1H164z M255 263h18v1H255z M291 263h18v1H291z M327 263h37v1H327z M382 263h54v1H382z M454 263h55v1H454z M527 263h18v1H527z M563 263h19v1H563z M18 264h19v1H18z M91 264h36v1H91z M164 264h72v1H164z M255 264h18v1H255z M291 264h18v1H291z M327 264h37v1H327z M382 264h54v1H382z M454 264h55v1H454z M527 264h18v1H527z M563 264h19v1H563z M18 265h19v1H18z M91 265h36v1H91z M164 265h72v1H164z M255 265h18v1H255z M291 265h18v1H291z M327 265h37v1H327z M382 265h54v1H382z M454 265h55v1H454z M527 265h18v1H527z M563 265h19v1H563z M18 266h19v1H18z M91 266h36v1H91z M164 266h72v1H164z M255 266h18v1H255z M291 266h18v1H291z M327 266h37v1H327z M382 266h54v1H382z M454 266h55v1H454z M527 266h18v1H527z M563 266h19v1H563z M18 267h19v1H18z M91 267h36v1H91z M164 267h72v1H164z M255 267h18v1H255z M291 267h18v1H291z M327 267h37v1H327z M382 267h54v1H382z M454 267h55v1H454z M527 267h18v1H527z M563 267h19v1H563z M18 268h19v1H18z M91 268h36v1H91z M164 268h72v1H164z M255 268h18v1H255z M291 268h18v1H291z M327 268h37v1H327z M382 268h54v1H382z M454 268h55v1H454z M527 268h18v1H527z M563 268h19v1H563z M18 269h19v1H18z M91 269h36v1H91z M164 269h72v1H164z M255 269h18v1H255z M291 269h18v1H291z M327 269h37v1H327z M382 269h54v1H382z M454 269h55v1H454z M527 269h18v1H527z M563 269h19v1H563z M18 270h19v1H18z M91 270h36v1H91z M164 270h72v1H164z M255 270h18v1H255z M291 270h18v1H291z M327 270h37v1H327z M382 270h54v1H382z M454 270h55v1H454z M527 270h18v1H527z M563 270h19v1H563z M18 271h19v1H18z M91 271h36v1H91z M164 271h72v1H164z M255 271h18v1H255z M291 271h18v1H291z M327 271h37v1H327z M382 271h54v1H382z M454 271h55v1H454z M527 271h18v1H527z M563 271h19v1H563z M18 272h19v1H18z M91 272h36v1H91z M164 272h72v1H164z M255 272h18v1H255z M291 272h18v1H291z M327 272h37v1H327z M382 272h54v1H382z M454 272h55v1H454z M527 272h18v1H527z M563 272h19v1H563z M0 273h18v1H0z M37 273h18v1H37z M73 273h36v1H73z M146 273h36v1H146z M200 273h18v1H200z M309 273h236v1H309z M0 274h18v1H0z M37 274h18v1H37z M73 274h36v1H73z M146 274h36v1H146z M200 274h18v1H200z M309 274h236v1H309z M0 275h18v1H0z M37 275h18v1H37z M73 275h36v1H73z M146 275h36v1H146z M200 275h18v1H200z M309 275h236v1H309z M0 276h18v1H0z M37 276h18v1H37z M73 276h36v1H73z M146 276h36v1H146z M200 276h18v1H200z M309 276h236v1H309z M0 277h18v1H0z M37 277h18v1H37z M73 277h36v1H73z M146 277h36v1H146z M200 277h18v1H200z M309 277h236v1H309z M0 278h18v1H0z M37 278h18v1H37z M73 278h36v1H73z M146 278h36v1H146z M200 278h18v1H200z M309 278h236v1H309z M0 279h18v1H0z M37 279h18v1H37z M73 279h36v1H73z M146 279h36v1H146z M200 279h18v1H200z M309 279h236v1H309z M0 280h18v1H0z M37 280h18v1H37z M73 280h36v1H73z M146 280h36v1H146z M200 280h18v1H200z M309 280h236v1H309z M0 281h18v1H0z M37 281h18v1H37z M73 281h36v1H73z M146 281h36v1H146z M200 281h18v1H200z M309 281h236v1H309z M0 282h18v1H0z M37 282h18v1H37z M73 282h36v1H73z M146 282h36v1H146z M200 282h18v1H200z M309 282h236v1H309z M0 283h18v1H0z M37 283h18v1H37z M73 283h36v1H73z M146 283h36v1H146z M200 283h18v1H200z M309 283h236v1H309z M0 284h18v1H0z M37 284h18v1H37z M73 284h36v1H73z M146 284h36v1H146z M200 284h18v1H200z M309 284h236v1H309z M0 285h18v1H0z M37 285h18v1H37z M73 285h36v1H73z M146 285h36v1H146z M200 285h18v1H200z M309 285h236v1H309z M0 286h18v1H0z M37 286h18v1H37z M73 286h36v1H73z M146 286h36v1H146z M200 286h18v1H200z M309 286h236v1H309z M0 287h18v1H0z M37 287h18v1H37z M73 287h36v1H73z M146 287h36v1H146z M200 287h18v1H200z M309 287h236v1H309z M0 288h18v1H0z M37 288h18v1H37z M73 288h36v1H73z M146 288h36v1H146z M200 288h18v1H200z M309 288h236v1H309z M0 289h18v1H0z M37 289h18v1H37z M73 289h36v1H73z M146 289h36v1H146z M200 289h18v1H200z M309 289h236v1H309z M0 290h18v1H0z M37 290h18v1H37z M73 290h36v1H73z M146 290h36v1H146z M200 290h18v1H200z M309 290h236v1H309z M37 291h36v1H37z M109 291h37v1H109z M200 291h36v1H200z M255 291h72v1H255z M364 291h54v1H364z M473 291h18v1H473z M509 291h36v1H509z M563 291h19v1H563z M37 292h36v1H37z M109 292h37v1H109z M200 292h36v1H200z M255 292h72v1H255z M364 292h54v1H364z M473 292h18v1H473z M509 292h36v1H509z M563 292h19v1H563z M37 293h36v1H37z M109 293h37v1H109z M200 293h36v1H200z M255 293h72v1H255z M364 293h54v1H364z M473 293h18v1H473z M509 293h36v1H509z M563 293h19v1H563z M37 294h36v1H37z M109 294h37v1H109z M200 294h36v1H200z M255 294h72v1H255z M364 294h54v1H364z M473 294h18v1H473z M509 294h36v1H509z M563 294h19v1H563z M37 295h36v1H37z M109 295h37v1H109z M200 295h36v1H200z M255 295h72v1H255z M364 295h54v1H364z M473 295h18v1H473z M509 295h36v1H509z M563 295h19v1H563z M37 296h36v1H37z M109 296h37v1H109z M200 296h36v1H200z M255 296h72v1H255z M364 296h54v1H364z M473 296h18v1H473z M509 296h36v1H509z M563 296h19v1H563z M37 297h36v1H37z M109 297h37v1H109z M200 297h36v1H200z M255 297h72v1H255z M364 297h54v1H364z M473 297h18v1H473z M509 297h36v1H509z M563 297h19v1H563z M37 298h36v1H37z M109 298h37v1H109z M200 298h36v1H200z M255 298h72v1H255z M364 298h54v1H364z M473 298h18v1H473z M509 298h36v1H509z M563 298h19v1H563z M37 299h36v1H37z M109 299h37v1H109z M200 299h36v1H200z M255 299h72v1H255z M364 299h54v1H364z M473 299h18v1H473z M509 299h36v1H509z M563 299h19v1H563z M37 300h36v1H37z M109 300h37v1H109z M200 300h36v1H200z M255 300h72v1H255z M364 300h54v1H364z M473 300h18v1H473z M509 300h36v1H509z M563 300h19v1H563z M37 301h36v1H37z M109 301h37v1H109z M200 301h36v1H200z M255 301h72v1H255z M364 301h54v1H364z M473 301h18v1H473z M509 301h36v1H509z M563 301h19v1H563z M37 302h36v1H37z M109 302h37v1H109z M200 302h36v1H200z M255 302h72v1H255z M364 302h54v1H364z M473 302h18v1H473z M509 302h36v1H509z M563 302h19v1H563z M37 303h36v1H37z M109 303h37v1H109z M200 303h36v1H200z M255 303h72v1H255z M364 303h54v1H364z M473 303h18v1H473z M509 303h36v1H509z M563 303h19v1H563z M37 304h36v1H37z M109 304h37v1H109z M200 304h36v1H200z M255 304h72v1H255z M364 304h54v1H364z M473 304h18v1H473z M509 304h36v1H509z M563 304h19v1H563z M37 305h36v1H37z M109 305h37v1H109z M200 305h36v1H200z M255 305h72v1H255z M364 305h54v1H364z M473 305h18v1H473z M509 305h36v1H509z M563 305h19v1H563z M37 306h36v1H37z M109 306h37v1H109z M200 306h36v1H200z M255 306h72v1H255z M364 306h54v1H364z M473 306h18v1H473z M509 306h36v1H509z M563 306h19v1H563z M37 307h36v1H37z M109 307h37v1H109z M200 307h36v1H200z M255 307h72v1H255z M364 307h54v1H364z M473 307h18v1H473z M509 307h36v1H509z M563 307h19v1H563z M37 308h36v1H37z M109 308h37v1H109z M200 308h36v1H200z M255 308h72v1H255z M364 308h54v1H364z M473 308h18v1H473z M509 308h36v1H509z M563 308h19v1H563z M0 309h18v1H0z M55 309h18v1H55z M91 309h18v1H91z M146 309h18v1H146z M200 309h36v1H200z M255 309h90v1H255z M382 309h54v1H382z M454 309h19v1H454z M527 309h55v1H527z M0 310h18v1H0z M55 310h18v1H55z M91 310h18v1H91z M146 310h18v1H146z M200 310h36v1H200z M255 310h90v1H255z M382 310h54v1H382z M454 310h19v1H454z M527 310h55v1H527z M0 311h18v1H0z M55 311h18v1H55z M91 311h18v1H91z M146 311h18v1H146z M200 311h36v1H200z M255 311h90v1H255z M382 311h54v1H382z M454 311h19v1H454z M527 311h55v1H527z M0 312h18v1H0z M55 312h18v1H55z M91 312h18v1H91z M146 312h18v1H146z M200 312h36v1H200z M255 312h90v1H255z M382 312h54v1H382z M454 312h19v1H454z M527 312h55v1H527z M0 313h18v1H0z M55 313h18v1H55z M91 313h18v1H91z M146 313h18v1H146z M200 313h36v1H200z M255 313h90v1H255z M382 313h54v1H382z M454 313h19v1H454z M527 313h55v1H527z M0 314h18v1H0z M55 314h18v1H55z M91 314h18v1H91z M146 314h18v1H146z M200 314h36v1H200z M255 314h90v1H255z M382 314h54v1H382z M454 314h19v1H454z M527 314h55v1H527z M0 315h18v1H0z M55 315h18v1H55z M91 315h18v1H91z M146 315h18v1H146z M200 315h36v1H200z M255 315h90v1H255z M382 315h54v1H382z M454 315h19v1H454z M527 315h55v1H527z M0 316h18v1H0z M55 316h18v1H55z M91 316h18v1H91z M146 316h18v1H146z M200 316h36v1H200z M255 316h90v1H255z M382 316h54v1H382z M454 316h19v1H454z M527 316h55v1H527z M0 317h18v1H0z M55 317h18v1H55z M91 317h18v1H91z M146 317h18v1H146z M200 317h36v1H200z M255 317h90v1H255z M382 317h54v1H382z M454 317h19v1H454z M527 317h55v1H527z M0 318h18v1H0z M55 318h18v1H55z M91 318h18v1H91z M146 318h18v1H146z M200 318h36v1H200z M255 318h90v1H255z M382 318h54v1H382z M454 318h19v1H454z M527 318h55v1H527z M0 319h18v1H0z M55 319h18v1H55z M91 319h18v1H91z M146 319h18v1H146z M200 319h36v1H200z M255 319h90v1H255z M382 319h54v1H382z M454 319h19v1H454z M527 319h55v1H527z M0 320h18v1H0z M55 320h18v1H55z M91 320h18v1H91z M146 320h18v1H146z M200 320h36v1H200z M255 320h90v1H255z M382 320h54v1H382z M454 320h19v1H454z M527 320h55v1H527z M0 321h18v1H0z M55 321h18v1H55z M91 321h18v1H91z M146 321h18v1H146z M200 321h36v1H200z M255 321h90v1H255z M382 321h54v1H382z M454 321h19v1H454z M527 321h55v1H527z M0 322h18v1H0z M55 322h18v1H55z M91 322h18v1H91z M146 322h18v1H146z M200 322h36v1H200z M255 322h90v1H255z M382 322h54v1H382z M454 322h19v1H454z M527 322h55v1H527z M0 323h18v1H0z M55 323h18v1H55z M91 323h18v1H91z M146 323h18v1H146z M200 323h36v1H200z M255 323h90v1H255z M382 323h54v1H382z M454 323h19v1H454z M527 323h55v1H527z M0 324h18v1H0z M55 324h18v1H55z M91 324h18v1H91z M146 324h18v1H146z M200 324h36v1H200z M255 324h90v1H255z M382 324h54v1H382z M454 324h19v1H454z M527 324h55v1H527z M0 325h18v1H0z M55 325h18v1H55z M91 325h18v1H91z M146 325h18v1H146z M200 325h36v1H200z M255 325h90v1H255z M382 325h54v1H382z M454 325h19v1H454z M527 325h55v1H527z M0 326h18v1H0z M55 326h18v1H55z M91 326h18v1H91z M146 326h18v1H146z M200 326h36v1H200z M255 326h90v1H255z M382 326h54v1H382z M454 326h19v1H454z M527 326h55v1H527z M37 327h18v1H37z M73 327h18v1H73z M109 327h18v1H109z M146 327h18v1H146z M218 327h18v1H218z M273 327h18v1H273z M327 327h18v1H327z M418 327h18v1H418z M454 327h19v1H454z M491 327h18v1H491z M527 327h18v1H527z M563 327h19v1H563z M37 328h18v1H37z M73 328h18v1H73z M109 328h18v1H109z M146 328h18v1H146z M218 328h18v1H218z M273 328h18v1H273z M327 328h18v1H327z M418 328h18v1H418z M454 328h19v1H454z M491 328h18v1H491z M527 328h18v1H527z M563 328h19v1H563z M37 329h18v1H37z M73 329h18v1H73z M109 329h18v1H109z M146 329h18v1H146z M218 329h18v1H218z M273 329h18v1H273z M327 329h18v1H327z M418 329h18v1H418z M454 329h19v1H454z M491 329h18v1H491z M527 329h18v1H527z M563 329h19v1H563z M37 330h18v1H37z M73 330h18v1H73z M109 330h18v1H109z M146 330h18v1H146z M218 330h18v1H218z M273 330h18v1H273z M327 330h18v1H327z M418 330h18v1H418z M454 330h19v1H454z M491 330h18v1H491z M527 330h18v1H527z M563 330h19v1H563z M37 331h18v1H37z M73 331h18v1H73z M109 331h18v1H109z M146 331h18v1H146z M218 331h18v1H218z M273 331h18v1H273z M327 331h18v1H327z M418 331h18v1H418z M454 331h19v1H454z M491 331h18v1H491z M527 331h18v1H527z M563 331h19v1H563z M37 332h18v1H37z M73 332h18v1H73z M109 332h18v1H109z M146 332h18v1H146z M218 332h18v1H218z M273 332h18v1H273z M327 332h18v1H327z M418 332h18v1H418z M454 332h19v1H454z M491 332h18v1H491z M527 332h18v1H527z M563 332h19v1H563z M37 333h18v1H37z M73 333h18v1H73z M109 333h18v1H109z M146 333h18v1H146z M218 333h18v1H218z M273 333h18v1H273z M327 333h18v1H327z M418 333h18v1H418z M454 333h19v1H454z M491 333h18v1H491z M527 333h18v1H527z M563 333h19v1H563z M37 334h18v1H37z M73 334h18v1H73z M109 334h18v1H109z M146 334h18v1H146z M218 334h18v1H218z M273 334h18v1H273z M327 334h18v1H327z M418 334h18v1H418z M454 334h19v1H454z M491 334h18v1H491z M527 334h18v1H527z M563 334h19v1H563z M37 335h18v1H37z M73 335h18v1H73z M109 335h18v1H109z M146 335h18v1H146z M218 335h18v1H218z M273 335h18v1H273z M327 335h18v1H327z M418 335h18v1H418z M454 335h19v1H454z M491 335h18v1H491z M527 335h18v1H527z M563 335h19v1H563z M37 336h18v1H37z M73 336h18v1H73z M109 336h18v1H109z M146 336h18v1H146z M218 336h18v1H218z M273 336h18v1H273z M327 336h18v1H327z M418 336h18v1H418z M454 336h19v1H454z M491 336h18v1H491z M527 336h18v1H527z M563 336h19v1H563z M37 337h18v1H37z M73 337h18v1H73z M109 337h18v1H109z M146 337h18v1H146z M218 337h18v1H218z M273 337h18v1H273z M327 337h18v1H327z M418 337h18v1H418z M454 337h19v1H454z M491 337h18v1H491z M527 337h18v1H527z M563 337h19v1H563z M37 338h18v1H37z M73 338h18v1H73z M109 338h18v1H109z M146 338h18v1H146z M218 338h18v1H218z M273 338h18v1H273z M327 338h18v1H327z M418 338h18v1H418z M454 338h19v1H454z M491 338h18v1H491z M527 338h18v1H527z M563 338h19v1H563z M37 339h18v1H37z M73 339h18v1H73z M109 339h18v1H109z M146 339h18v1H146z M218 339h18v1H218z M273 339h18v1H273z M327 339h18v1H327z M418 339h18v1H418z M454 339h19v1H454z M491 339h18v1H491z M527 339h18v1H527z M563 339h19v1H563z M37 340h18v1H37z M73 340h18v1H73z M109 340h18v1H109z M146 340h18v1H146z M218 340h18v1H218z M273 340h18v1H273z M327 340h18v1H327z M418 340h18v1H418z M454 340h19v1H454z M491 340h18v1H491z M527 340h18v1H527z M563 340h19v1H563z M37 341h18v1H37z M73 341h18v1H73z M109 341h18v1H109z M146 341h18v1H146z M218 341h18v1H218z M273 341h18v1H273z M327 341h18v1H327z M418 341h18v1H418z M454 341h19v1H454z M491 341h18v1H491z M527 341h18v1H527z M563 341h19v1H563z M37 342h18v1H37z M73 342h18v1H73z M109 342h18v1H109z M146 342h18v1H146z M218 342h18v1H218z M273 342h18v1H273z M327 342h18v1H327z M418 342h18v1H418z M454 342h19v1H454z M491 342h18v1H491z M527 342h18v1H527z M563 342h19v1H563z M37 343h18v1H37z M73 343h18v1H73z M109 343h18v1H109z M146 343h18v1H146z M218 343h18v1H218z M273 343h18v1H273z M327 343h18v1H327z M418 343h18v1H418z M454 343h19v1H454z M491 343h18v1H491z M527 343h18v1H527z M563 343h19v1H563z M37 344h18v1H37z M73 344h18v1H73z M109 344h18v1H109z M146 344h18v1H146z M218 344h18v1H218z M273 344h18v1H273z M327 344h18v1H327z M418 344h18v1H418z M454 344h19v1H454z M491 344h18v1H491z M527 344h18v1H527z M563 344h19v1H563z M0 345h18v1H0z M55 345h54v1H55z M146 345h18v1H146z M200 345h36v1H200z M255 345h18v1H255z M345 345h37v1H345z M400 345h36v1H400z M491 345h18v1H491z M563 345h37v1H563z M0 346h18v1H0z M55 346h54v1H55z M146 346h18v1H146z M200 346h36v1H200z M255 346h18v1H255z M345 346h37v1H345z M400 346h36v1H400z M491 346h18v1H491z M563 346h37v1H563z M0 347h18v1H0z M55 347h54v1H55z M146 347h18v1H146z M200 347h36v1H200z M255 347h18v1H255z M345 347h37v1H345z M400 347h36v1H400z M491 347h18v1H491z M563 347h37v1H563z M0 348h18v1H0z M55 348h54v1H55z M146 348h18v1H146z M200 348h36v1H200z M255 348h18v1H255z M345 348h37v1H345z M400 348h36v1H400z M491 348h18v1H491z M563 348h37v1H563z M0 349h18v1H0z M55 349h54v1H55z M146 349h18v1H146z M200 349h36v1H200z M255 349h18v1H255z M345 349h37v1H345z M400 349h36v1H400z M491 349h18v1H491z M563 349h37v1H563z M0 350h18v1H0z M55 350h54v1H55z M146 350h18v1H146z M200 350h36v1H200z M255 350h18v1H255z M345 350h37v1H345z M400 350h36v1H400z M491 350h18v1H491z M563 350h37v1H563z M0 351h18v1H0z M55 351h54v1H55z M146 351h18v1H146z M200 351h36v1H200z M255 351h18v1H255z M345 351h37v1H345z M400 351h36v1H400z M491 351h18v1H491z M563 351h37v1H563z M0 352h18v1H0z M55 352h54v1H55z M146 352h18v1H146z M200 352h36v1H200z M255 352h18v1H255z M345 352h37v1H345z M400 352h36v1H400z M491 352h18v1H491z M563 352h37v1H563z M0 353h18v1H0z M55 353h54v1H55z M146 353h18v1H146z M200 353h36v1H200z M255 353h18v1H255z M345 353h37v1H345z M400 353h36v1H400z M491 353h18v1H491z M563 353h37v1H563z M0 354h18v1H0z M55 354h54v1H55z M146 354h18v1H146z M200 354h36v1H200z M255 354h18v1H255z M345 354h37v1H345z M400 354h36v1H400z M491 354h18v1H491z M563 354h37v1H563z M0 355h18v1H0z M55 355h54v1H55z M146 355h18v1H146z M200 355h36v1H200z M255 355h18v1H255z M345 355h37v1H345z M400 355h36v1H400z M491 355h18v1H491z M563 355h37v1H563z M0 356h18v1H0z M55 356h54v1H55z M146 356h18v1H146z M200 356h36v1H200z M255 356h18v1H255z M345 356h37v1H345z M400 356h36v1H400z M491 356h18v1H491z M563 356h37v1H563z M0 357h18v1H0z M55 357h54v1H55z M146 357h18v1H146z M200 357h36v1H200z M255 357h18v1H255z M345 357h37v1H345z M400 357h36v1H400z M491 357h18v1H491z M563 357h37v1H563z M0 358h18v1H0z M55 358h54v1H55z M146 358h18v1H146z M200 358h36v1H200z M255 358h18v1H255z M345 358h37v1H345z M400 358h36v1H400z M491 358h18v1H491z M563 358h37v1H563z M0 359h18v1H0z M55 359h54v1H55z M146 359h18v1H146z M200 359h36v1H200z M255 359h18v1H255z M345 359h37v1H345z M400 359h36v1H400z M491 359h18v1H491z M563 359h37v1H563z M0 360h18v1H0z M55 360h54v1H55z M146 360h18v1H146z M200 360h36v1H200z M255 360h18v1H255z M345 360h37v1H345z M400 360h36v1H400z M491 360h18v1H491z M563 360h37v1H563z M0 361h18v1H0z M55 361h54v1H55z M146 361h18v1H146z M200 361h36v1H200z M255 361h18v1H255z M345 361h37v1H345z M400 361h36v1H400z M491 361h18v1H491z M563 361h37v1H563z M0 362h18v1H0z M55 362h54v1H55z M146 362h18v1H146z M200 362h36v1H200z M255 362h18v1H255z M345 362h37v1H345z M400 362h36v1H400z M491 362h18v1H491z M563 362h37v1H563z M0 363h18v1H0z M55 363h54v1H55z M146 363h18v1H146z M200 363h36v1H200z M255 363h18v1H255z M345 363h37v1H345z M400 363h36v1H400z M491 363h18v1H491z M563 363h37v1H563z M73 364h18v1H73z M109 364h18v1H109z M146 364h109v1H146z M273 364h36v1H273z M400 364h18v1H400z M454 364h91v1H454z M73 365h18v1H73z M109 365h18v1H109z M146 365h109v1H146z M273 365h36v1H273z M400 365h18v1H400z M454 365h91v1H454z M73 366h18v1H73z M109 366h18v1H109z M146 366h109v1H146z M273 366h36v1H273z M400 366h18v1H400z M454 366h91v1H454z M73 367h18v1H73z M109 367h18v1H109z M146 367h109v1H146z M273 367h36v1H273z M400 367h18v1H400z M454 367h91v1H454z M73 368h18v1H73z M109 368h18v1H109z M146 368h109v1H146z M273 368h36v1H273z M400 368h18v1H400z M454 368h91v1H454z M73 369h18v1H73z M109 369h18v1H109z M146 369h109v1H146z M273 369h36v1H273z M400 369h18v1H400z M454 369h91v1H454z M73 370h18v1H73z M109 370h18v1H109z M146 370h109v1H146z M273 370h36v1H273z M400 370h18v1H400z M454 370h91v1H454z M73 371h18v1H73z M109 371h18v1H109z M146 371h109v1H146z M273 371h36v1H273z M400 371h18v1H400z M454 371h91v1H454z M73 372h18v1H73z M109 372h18v1H109z M146 372h109v1H146z M273 372h36v1H273z M400 372h18v1H400z M454 372h91v1H454z M73 373h18v1H73z M109 373h18v1H109z M146 373h109v1H146z M273 373h36v1H273z M400 373h18v1H400z M454 373h91v1H454z M73 374h18v1H73z M109 374h18v1H109z M146 374h109v1H146z M273 374h36v1H273z M400 374h18v1H400z M454 374h91v1H454z M73 375h18v1H73z M109 375h18v1H109z M146 375h109v1H146z M273 375h36v1H273z M400 375h18v1H400z M454 375h91v1H454z M73 376h18v1H73z M109 376h18v1H109z M146 376h109v1H146z M273 376h36v1H273z M400 376h18v1H400z M454 376h91v1H454z M73 377h18v1H73z M109 377h18v1H109z M146 377h109v1H146z M273 377h36v1H273z M400 377h18v1H400z M454 377h91v1H454z M73 378h18v1H73z M109 378h18v1H109z M146 378h109v1H146z M273 378h36v1H273z M400 378h18v1H400z M454 378h91v1H454z M73 379h18v1H73z M109 379h18v1H109z M146 379h109v1H146z M273 379h36v1H273z M400 379h18v1H400z M454 379h91v1H454z M73 380h18v1H73z M109 380h18v1H109z M146 380h109v1H146z M273 380h36v1H273z M400 380h18v1H400z M454 380h91v1H454z M73 381h18v1H73z M109 381h18v1H109z M146 381h109v1H146z M273 381h36v1H273z M400 381h18v1H400z M454 381h91v1H454z M0 382h18v1H0z M37 382h18v1H37z M73 382h36v1H73z M127 382h37v1H127z M182 382h18v1H182z M327 382h55v1H327z M418 382h36v1H418z M527 382h55v1H527z M0 383h18v1H0z M37 383h18v1H37z M73 383h36v1H73z M127 383h37v1H127z M182 383h18v1H182z M327 383h55v1H327z M418 383h36v1H418z M527 383h55v1H527z M0 384h18v1H0z M37 384h18v1H37z M73 384h36v1H73z M127 384h37v1H127z M182 384h18v1H182z M327 384h55v1H327z M418 384h36v1H418z M527 384h55v1H527z M0 385h18v1H0z M37 385h18v1H37z M73 385h36v1H73z M127 385h37v1H127z M182 385h18v1H182z M327 385h55v1H327z M418 385h36v1H418z M527 385h55v1H527z M0 386h18v1H0z M37 386h18v1H37z M73 386h36v1H73z M127 386h37v1H127z M182 386h18v1H182z M327 386h55v1H327z M418 386h36v1H418z M527 386h55v1H527z M0 387h18v1H0z M37 387h18v1H37z M73 387h36v1H73z M127 387h37v1H127z M182 387h18v1H182z M327 387h55v1H327z M418 387h36v1H418z M527 387h55v1H527z M0 388h18v1H0z M37 388h18v1H37z M73 388h36v1H73z M127 388h37v1H127z M182 388h18v1H182z M327 388h55v1H327z M418 388h36v1H418z M527 388h55v1H527z M0 389h18v1H0z M37 389h18v1H37z M73 389h36v1H73z M127 389h37v1H127z M182 389h18v1H182z M327 389h55v1H327z M418 389h36v1H418z M527 389h55v1H527z M0 390h18v1H0z M37 390h18v1H37z M73 390h36v1H73z M127 390h37v1H127z M182 390h18v1H182z M327 390h55v1H327z M418 390h36v1H418z M527 390h55v1H527z M0 391h18v1H0z M37 391h18v1H37z M73 391h36v1H73z M127 391h37v1H127z M182 391h18v1H182z M327 391h55v1H327z M418 391h36v1H418z M527 391h55v1H527z M0 392h18v1H0z M37 392h18v1H37z M73 392h36v1H73z M127 392h37v1H127z M182 392h18v1H182z M327 392h55v1H327z M418 392h36v1H418z M527 392h55v1H527z M0 393h18v1H0z M37 393h18v1H37z M73 393h36v1H73z M127 393h37v1H127z M182 393h18v1H182z M327 393h55v1H327z M418 393h36v1H418z M527 393h55v1H527z M0 394h18v1H0z M37 394h18v1H37z M73 394h36v1H73z M127 394h37v1H127z M182 394h18v1H182z M327 394h55v1H327z M418 394h36v1H418z M527 394h55v1H527z M0 395h18v1H0z M37 395h18v1H37z M73 395h36v1H73z M127 395h37v1H127z M182 395h18v1H182z M327 395h55v1H327z M418 395h36v1H418z M527 395h55v1H527z M0 396h18v1H0z M37 396h18v1H37z M73 396h36v1H73z M127 396h37v1H127z M182 396h18v1H182z M327 396h55v1H327z M418 396h36v1H418z M527 396h55v1H527z M0 397h18v1H0z M37 397h18v1H37z M73 397h36v1H73z M127 397h37v1H127z M182 397h18v1H182z M327 397h55v1H327z M418 397h36v1H418z M527 397h55v1H527z M0 398h18v1H0z M37 398h18v1H37z M73 398h36v1H73z M127 398h37v1H127z M182 398h18v1H182z M327 398h55v1H327z M418 398h36v1H418z M527 398h55v1H527z M0 399h18v1H0z M37 399h18v1H37z M73 399h36v1H73z M127 399h37v1H127z M182 399h18v1H182z M327 399h55v1H327z M418 399h36v1H418z M527 399h55v1H527z M37 400h36v1H37z M91 400h73v1H91z M182 400h73v1H182z M273 400h18v1H273z M309 400h18v1H309z M364 400h72v1H364z M509 400h73v1H509z M37 401h36v1H37z M91 401h73v1H91z M182 401h73v1H182z M273 401h18v1H273z M309 401h18v1H309z M364 401h72v1H364z M509 401h73v1H509z M37 402h36v1H37z M91 402h73v1H91z M182 402h73v1H182z M273 402h18v1H273z M309 402h18v1H309z M364 402h72v1H364z M509 402h73v1H509z M37 403h36v1H37z M91 403h73v1H91z M182 403h73v1H182z M273 403h18v1H273z M309 403h18v1H309z M364 403h72v1H364z M509 403h73v1H509z M37 404h36v1H37z M91 404h73v1H91z M182 404h73v1H182z M273 404h18v1H273z M309 404h18v1H309z M364 404h72v1H364z M509 404h73v1H509z M37 405h36v1H37z M91 405h73v1H91z M182 405h73v1H182z M273 405h18v1H273z M309 405h18v1H309z M364 405h72v1H364z M509 405h73v1H509z M37 406h36v1H37z M91 406h73v1H91z M182 406h73v1H182z M273 406h18v1H273z M309 406h18v1H309z M364 406h72v1H364z M509 406h73v1H509z M37 407h36v1H37z M91 407h73v1H91z M182 407h73v1H182z M273 407h18v1H273z M309 407h18v1H309z M364 407h72v1H364z M509 407h73v1H509z M37 408h36v1H37z M91 408h73v1H91z M182 408h73v1H182z M273 408h18v1H273z M309 408h18v1H309z M364 408h72v1H364z M509 408h73v1H509z M37 409h36v1H37z M91 409h73v1H91z M182 409h73v1H182z M273 409h18v1H273z M309 409h18v1H309z M364 409h72v1H364z M509 409h73v1H509z M37 410h36v1H37z M91 410h73v1H91z M182 410h73v1H182z M273 410h18v1H273z M309 410h18v1H309z M364 410h72v1H364z M509 410h73v1H509z M37 411h36v1H37z M91 411h73v1H91z M182 411h73v1H182z M273 411h18v1H273z M309 411h18v1H309z M364 411h72v1H364z M509 411h73v1H509z M37 412h36v1H37z M91 412h73v1H91z M182 412h73v1H182z M273 412h18v1H273z M309 412h18v1H309z M364 412h72v1H364z M509 412h73v1H509z M37 413h36v1H37z M91 413h73v1H91z M182 413h73v1H182z M273 413h18v1H273z M309 413h18v1H309z M364 413h72v1H364z M509 413h73v1H509z M37 414h36v1H37z M91 414h73v1H91z M182 414h73v1H182z M273 414h18v1H273z M309 414h18v1H309z M364 414h72v1H364z M509 414h73v1H509z M37 415h36v1H37z M91 415h73v1H91z M182 415h73v1H182z M273 415h18v1H273z M309 415h18v1H309z M364 415h72v1H364z M509 415h73v1H509z M37 416h36v1H37z M91 416h73v1H91z M182 416h73v1H182z M273 416h18v1H273z M309 416h18v1H309z M364 416h72v1H364z M509 416h73v1H509z M37 417h36v1H37z M91 417h73v1H91z M182 417h73v1H182z M273 417h18v1H273z M309 417h18v1H309z M364 417h72v1H364z M509 417h73v1H509z M55 418h18v1H55z M91 418h18v1H91z M164 418h36v1H164z M218 418h37v1H218z M273 418h72v1H273z M382 418h36v1H382z M454 418h19v1H454z M509 418h36v1H509z M55 419h18v1H55z M91 419h18v1H91z M164 419h36v1H164z M218 419h37v1H218z M273 419h72v1H273z M382 419h36v1H382z M454 419h19v1H454z M509 419h36v1H509z M55 420h18v1H55z M91 420h18v1H91z M164 420h36v1H164z M218 420h37v1H218z M273 420h72v1H273z M382 420h36v1H382z M454 420h19v1H454z M509 420h36v1H509z M55 421h18v1H55z M91 421h18v1H91z M164 421h36v1H164z M218 421h37v1H218z M273 421h72v1H273z M382 421h36v1H382z M454 421h19v1H454z M509 421h36v1H509z M55 422h18v1H55z M91 422h18v1H91z M164 422h36v1H164z M218 422h37v1H218z M273 422h72v1H273z M382 422h36v1H382z M454 422h19v1H454z M509 422h36v1H509z M55 423h18v1H55z M91 423h18v1H91z M164 423h36v1H164z M218 423h37v1H218z M273 423h72v1H273z M382 423h36v1H382z M454 423h19v1H454z M509 423h36v1H509z M55 424h18v1H55z M91 424h18v1H91z M164 424h36v1H164z M218 424h37v1H218z M273 424h72v1H273z M382 424h36v1H382z M454 424h19v1H454z M509 424h36v1H509z M55 425h18v1H55z M91 425h18v1H91z M164 425h36v1H164z M218 425h37v1H218z M273 425h72v1H273z M382 425h36v1H382z M454 425h19v1H454z M509 425h36v1H509z M55 426h18v1H55z M91 426h18v1H91z M164 426h36v1H164z M218 426h37v1H218z M273 426h72v1H273z M382 426h36v1H382z M454 426h19v1H454z M509 426h36v1H509z M55 427h18v1H55z M91 427h18v1H91z M164 427h36v1H164z M218 427h37v1H218z M273 427h72v1H273z M382 427h36v1H382z M454 427h19v1H454z M509 427h36v1H509z M55 428h18v1H55z M91 428h18v1H91z M164 428h36v1H164z M218 428h37v1H218z M273 428h72v1H273z M382 428h36v1H382z M454 428h19v1H454z M509 428h36v1H509z M55 429h18v1H55z M91 429h18v1H91z M164 429h36v1H164z M218 429h37v1H218z M273 429h72v1H273z M382 429h36v1H382z M454 429h19v1H454z M509 429h36v1H509z M55 430h18v1H55z M91 430h18v1H91z M164 430h36v1H164z M218 430h37v1H218z M273 430h72v1H273z M382 430h36v1H382z M454 430h19v1H454z M509 430h36v1H509z M55 431h18v1H55z M91 431h18v1H91z M164 431h36v1H164z M218 431h37v1H218z M273 431h72v1H273z M382 431h36v1H382z M454 431h19v1H454z M509 431h36v1H509z M55 432h18v1H55z M91 432h18v1H91z M164 432h36v1H164z M218 432h37v1H218z M273 432h72v1H273z M382 432h36v1H382z M454 432h19v1H454z M509 432h36v1H509z M55 433h18v1H55z M91 433h18v1H91z M164 433h36v1H164z M218 433h37v1H218z M273 433h72v1H273z M382 433h36v1H382z M454 433h19v1H454z M509 433h36v1H509z M55 434h18v1H55z M91 434h18v1H91z M164 434h36v1H164z M218 434h37v1H218z M273 434h72v1H273z M382 434h36v1H382z M454 434h19v1H454z M509 434h36v1H509z M55 435h18v1H55z M91 435h18v1H91z M164 435h36v1H164z M218 435h37v1H218z M273 435h72v1H273z M382 435h36v1H382z M454 435h19v1H454z M509 435h36v1H509z M0 436h91v1H0z M109 436h37v1H109z M200 436h55v1H200z M309 436h18v1H309z M345 436h73v1H345z M436 436h109v1H436z M0 437h91v1H0z M109 437h37v1H109z M200 437h55v1H200z M309 437h18v1H309z M345 437h73v1H345z M436 437h109v1H436z M0 438h91v1H0z M109 438h37v1H109z M200 438h55v1H200z M309 438h18v1H309z M345 438h73v1H345z M436 438h109v1H436z M0 439h91v1H0z M109 439h37v1H109z M200 439h55v1H200z M309 439h18v1H309z M345 439h73v1H345z M436 439h109v1H436z M0 440h91v1H0z M109 440h37v1H109z M200 440h55v1H200z M309 440h18v1H309z M345 440h73v1H345z M436 440h109v1H436z M0 441h91v1H0z M109 441h37v1H109z M200 441h55v1H200z M309 441h18v1H309z M345 441h73v1H345z M436 441h109v1H436z M0 442h91v1H0z M109 442h37v1H109z M200 442h55v1H200z M309 442h18v1H309z M345 442h73v1H345z M436 442h109v1H436z M0 443h91v1H0z M109 443h37v1H109z M200 443h55v1H200z M309 443h18v1H309z M345 443h73v1H345z M436 443h109v1H436z M0 444h91v1H0z M109 444h37v1H109z M200 444h55v1H200z M309 444h18v1H309z M345 444h73v1H345z M436 444h109v1H436z M0 445h91v1H0z M109 445h37v1H109z M200 445h55v1H200z M309 445h18v1H309z M345 445h73v1H345z M436 445h109v1H436z M0 446h91v1H0z M109 446h37v1H109z M200 446h55v1H200z M309 446h18v1H309z M345 446h73v1H345z M436 446h109v1H436z M0 447h91v1H0z M109 447h37v1H109z M200 447h55v1H200z M309 447h18v1H309z M345 447h73v1H345z M436 447h109v1H436z M0 448h91v1H0z M109 448h37v1H109z M200 448h55v1H200z M309 448h18v1H309z M345 448h73v1H345z M436 448h109v1H436z M0 449h91v1H0z M109 449h37v1H109z M200 449h55v1H200z M309 449h18v1H309z M345 449h73v1H345z M436 449h109v1H436z M0 450h91v1H0z M109 450h37v1H109z M200 450h55v1H200z M309 450h18v1H309z M345 450h73v1H345z M436 450h109v1H436z M0 451h91v1H0z M109 451h37v1H109z M200 451h55v1H200z M309 451h18v1H309z M345 451h73v1H345z M436 451h109v1H436z M0 452h91v1H0z M109 452h37v1H109z M200 452h55v1H200z M309 452h18v1H309z M345 452h73v1H345z M436 452h109v1H436z M0 453h91v1H0z M109 453h37v1H109z M200 453h55v1H200z M309 453h18v1H309z M345 453h73v1H345z M436 453h109v1H436z M146 454h18v1H146z M236 454h55v1H236z M364 454h18v1H364z M418 454h36v1H418z M509 454h18v1H509z M545 454h37v1H545z M146 455h18v1H146z M236 455h55v1H236z M364 455h18v1H364z M418 455h36v1H418z M509 455h18v1H509z M545 455h37v1H545z M146 456h18v1H146z M236 456h55v1H236z M364 456h18v1H364z M418 456h36v1H418z M509 456h18v1H509z M545 456h37v1H545z M146 457h18v1H146z M236 457h55v1H236z M364 457h18v1H364z M418 457h36v1H418z M509 457h18v1H509z M545 457h37v1H545z M146 458h18v1H146z M236 458h55v1H236z M364 458h18v1H364z M418 458h36v1H418z M509 458h18v1H509z M545 458h37v1H545z M146 459h18v1H146z M236 459h55v1H236z M364 459h18v1H364z M418 459h36v1H418z M509 459h18v1H509z M545 459h37v1H545z M146 460h18v1H146z M236 460h55v1H236z M364 460h18v1H364z M418 460h36v1H418z M509 460h18v1H509z M545 460h37v1H545z M146 461h18v1H146z M236 461h55v1H236z M364 461h18v1H364z M418 461h36v1H418z M509 461h18v1H509z M545 461h37v1H545z M146 462h18v1H146z M236 462h55v1H236z M364 462h18v1H364z M418 462h36v1H418z M509 462h18v1H509z M545 462h37v1H545z M146 463h18v1H146z M236 463h55v1H236z M364 463h18v1H364z M418 463h36v1H418z M509 463h18v1H509z M545 463h37v1H545z M146 464h18v1H146z M236 464h55v1H236z M364 464h18v1H364z M418 464h36v1H418z M509 464h18v1H509z M545 464h37v1H545z M146 465h18v1H146z M236 465h55v1H236z M364 465h18v1H364z M418 465h36v1H418z M509 465h18v1H509z M545 465h37v1H545z M146 466h18v1H146z M236 466h55v1H236z M364 466h18v1H364z M418 466h36v1H418z M509 466h18v1H509z M545 466h37v1H545z M146 467h18v1H146z M236 467h55v1H236z M364 467h18v1H364z M418 467h36v1H418z M509 467h18v1H509z M545 467h37v1H545z M146 468h18v1H146z M236 468h55v1H236z M364 468h18v1H364z M418 468h36v1H418z M509 468h18v1H509z M545 468h37v1H545z M146 469h18v1H146z M236 469h55v1H236z M364 469h18v1H364z M418 469h36v1H418z M509 469h18v1H509z M545 469h37v1H545z M146 470h18v1H146z M236 470h55v1H236z M364 470h18v1H364z M418 470h36v1H418z M509 470h18v1H509z M545 470h37v1H545z M146 471h18v1H146z M236 471h55v1H236z M364 471h18v1H364z M418 471h36v1H418z M509 471h18v1H509z M545 471h37v1H545z M146 472h18v1H146z M236 472h55v1H236z M364 472h18v1H364z M418 472h36v1H418z M509 472h18v1H509z M545 472h37v1H545z M146 473h36v1H146z M273 473h54v1H273z M364 473h54v1H364z M436 473h18v1H436z M473 473h18v1H473z M509 473h36v1H509z M54 474h20v1H54z M146 474h36v1H146z M273 474h54v1H273z M364 474h54v1H364z M436 474h18v1H436z M473 474h18v1H473z M509 474h36v1H509z M48 475h31v1H48z M146 475h36v1H146z M273 475h54v1H273z M364 475h54v1H364z M436 475h18v1H436z M473 475h18v1H473z M509 475h36v1H509z M46 476h36v1H46z M146 476h36v1H146z M273 476h54v1H273z M364 476h54v1H364z M436 476h18v1H436z M473 476h18v1H473z M509 476h36v1H509z M43 477h42v1H43z M146 477h36v1H146z M273 477h54v1H273z M364 477h54v1H364z M436 477h18v1H436z M473 477h18v1H473z M509 477h36v1H509z M40 478h48v1H40z M146 478h36v1H146z M273 478h54v1H273z M364 478h54v1H364z M436 478h18v1H436z M473 478h18v1H473z M509 478h36v1H509z M38 479h51v1H38z M146 479h36v1H146z M273 479h54v1H273z M364 479h54v1H364z M436 479h18v1H436z M473 479h18v1H473z M509 479h36v1H509z M36 480h56v1H36z M146 480h36v1H146z M273 480h54v1H273z M364 480h54v1H364z M436 480h18v1H436z M473 480h18v1H473z M509 480h36v1H509z M34 481h60v1H34z M146 481h36v1H146z M273 481h54v1H273z M364 481h54v1H364z M436 481h18v1H436z M473 481h18v1H473z M509 481h36v1H509z M33 482h62v1H33z M146 482h36v1H146z M273 482h54v1H273z M364 482h54v1H364z M436 482h18v1H436z M473 482h18v1H473z M509 482h36v1H509z M31 483h66v1H31z M146 483h36v1H146z M273 483h54v1H273z M364 483h54v1H364z M436 483h18v1H436z M473 483h18v1H473z M509 483h36v1H509z M29 484h70v1H29z M146 484h36v1H146z M273 484h54v1H273z M364 484h54v1H364z M436 484h18v1H436z M473 484h18v1H473z M509 484h36v1H509z M27 485h74v1H27z M146 485h36v1H146z M273 485h54v1H273z M364 485h54v1H364z M436 485h18v1H436z M473 485h18v1H473z M509 485h36v1H509z M27 486h74v1H27z M146 486h36v1H146z M273 486h54v1H273z M364 486h54v1H364z M436 486h18v1H436z M473 486h18v1H473z M509 486h36v1H509z M25 487h78v1H25z M146 487h36v1H146z M273 487h54v1H273z M364 487h54v1H364z M436 487h18v1H436z M473 487h18v1H473z M509 487h36v1H509z M24 488h80v1H24z M146 488h36v1H146z M273 488h54v1H273z M364 488h54v1H364z M436 488h18v1H436z M473 488h18v1H473z M509 488h36v1H509z M23 489h82v1H23z M146 489h36v1H146z M273 489h54v1H273z M364 489h54v1H364z M436 489h18v1H436z M473 489h18v1H473z M509 489h36v1H509z M21 490h85v1H21z M146 490h36v1H146z M273 490h54v1H273z M364 490h54v1H364z M436 490h18v1H436z M473 490h18v1H473z M509 490h36v1H509z M20 491h88v1H20z M200 491h18v1H200z M255 491h90v1H255z M364 491h36v1H364z M436 491h18v1H436z M509 491h18v1H509z M563 491h19v1H563z M19 492h40v1H19z M69 492h40v1H69z M200 492h18v1H200z M255 492h90v1H255z M364 492h36v1H364z M436 492h18v1H436z M509 492h18v1H509z M563 492h19v1H563z M18 493h37v1H18z M72 493h37v1H72z M200 493h18v1H200z M255 493h90v1H255z M364 493h36v1H364z M436 493h18v1H436z M509 493h18v1H509z M563 493h19v1H563z M17 494h34v1H17z M77 494h33v1H77z M200 494h18v1H200z M255 494h90v1H255z M364 494h36v1H364z M436 494h18v1H436z M509 494h18v1H509z M563 494h19v1H563z M17 495h31v1H17z M80 495h31v1H80z M200 495h18v1H200z M255 495h90v1H255z M364 495h36v1H364z M436 495h18v1H436z M509 495h18v1H509z M563 495h19v1H563z M16 496h30v1H16z M82 496h30v1H82z M200 496h18v1H200z M255 496h90v1H255z M364 496h36v1H364z M436 496h18v1H436z M509 496h18v1H509z M563 496h19v1H563z M15 497h29v1H15z M84 497h29v1H84z M200 497h18v1H200z M255 497h90v1H255z M364 497h36v1H364z M436 497h18v1H436z M509 497h18v1H509z M563 497h19v1H563z M14 498h27v1H14z M86 498h27v1H86z M200 498h18v1H200z M255 498h90v1H255z M364 498h36v1H364z M436 498h18v1H436z M509 498h18v1H509z M563 498h19v1H563z M13 499h27v1H13z M88 499h27v1H88z M200 499h18v1H200z M255 499h90v1H255z M364 499h36v1H364z M436 499h18v1H436z M509 499h18v1H509z M563 499h19v1H563z M13 500h26v1H13z M89 500h26v1H89z M200 500h18v1H200z M255 500h90v1H255z M364 500h36v1H364z M436 500h18v1H436z M509 500h18v1H509z M563 500h19v1H563z M12 501h25v1H12z M91 501h25v1H91z M200 501h18v1H200z M255 501h90v1H255z M364 501h36v1H364z M436 501h18v1H436z M509 501h18v1H509z M563 501h19v1H563z M11 502h25v1H11z M92 502h24v1H92z M200 502h18v1H200z M255 502h90v1H255z M364 502h36v1H364z M436 502h18v1H436z M509 502h18v1H509z M563 502h19v1H563z M11 503h24v1H11z M93 503h24v1H93z M200 503h18v1H200z M255 503h90v1H255z M364 503h36v1H364z M436 503h18v1H436z M509 503h18v1H509z M563 503h19v1H563z M10 504h24v1H10z M94 504h23v1H94z M200 504h18v1H200z M255 504h90v1H255z M364 504h36v1H364z M436 504h18v1H436z M509 504h18v1H509z M563 504h19v1H563z M10 505h23v1H10z M95 505h23v1H95z M200 505h18v1H200z M255 505h90v1H255z M364 505h36v1H364z M436 505h18v1H436z M509 505h18v1H509z M563 505h19v1H563z M9 506h23v1H9z M96 506h23v1H96z M200 506h18v1H200z M255 506h90v1H255z M364 506h36v1H364z M436 506h18v1H436z M509 506h18v1H509z M563 506h19v1H563z M9 507h22v1H9z M97 507h22v1H97z M200 507h18v1H200z M255 507h90v1H255z M364 507h36v1H364z M436 507h18v1H436z M509 507h18v1H509z M563 507h19v1H563z M8 508h22v1H8z M98 508h22v1H98z M200 508h18v1H200z M255 508h90v1H255z M364 508h36v1H364z M436 508h18v1H436z M509 508h18v1H509z M563 508h19v1H563z M7 509h22v1H7z M57 509h13v1H57z M99 509h21v1H99z M146 509h36v1H146z M200 509h36v1H200z M327 509h55v1H327z M436 509h109v1H436z M7 510h21v1H7z M55 510h17v1H55z M99 510h21v1H99z M146 510h36v1H146z M200 510h36v1H200z M327 510h55v1H327z M436 510h109v1H436z M7 511h21v1H7z M52 511h23v1H52z M100 511h21v1H100z M146 511h36v1H146z M200 511h36v1H200z M327 511h55v1H327z M436 511h109v1H436z M6 512h21v1H6z M50 512h27v1H50z M101 512h21v1H101z M146 512h36v1H146z M200 512h36v1H200z M327 512h55v1H327z M436 512h109v1H436z M6 513h21v1H6z M49 513h29v1H49z M101 513h21v1H101z M146 513h36v1H146z M200 513h36v1H200z M327 513h55v1H327z M436 513h109v1H436z M6 514h20v1H6z M47 514h32v1H47z M102 514h20v1H102z M146 514h36v1H146z M200 514h36v1H200z M327 514h55v1H327z M436 514h109v1H436z M5 515h21v1H5z M45 515h36v1H45z M102 515h21v1H102z M146 515h36v1H146z M200 515h36v1H200z M327 515h55v1H327z M436 515h109v1H436z M4 516h21v1H4z M44 516h38v1H44z M103 516h20v1H103z M146 516h36v1H146z M200 516h36v1H200z M327 516h55v1H327z M436 516h109v1H436z M4 517h20v1H4z M44 517h39v1H44z M103 517h20v1H103z M146 517h36v1H146z M200 517h36v1H200z M327 517h55v1H327z M436 517h109v1H436z M4 518h20v1H4z M43 518h41v1H43z M104 518h20v1H104z M146 518h36v1H146z M200 518h36v1H200z M327 518h55v1H327z M436 518h109v1H436z M4 519h20v1H4z M42 519h43v1H42z M104 519h20v1H104z M146 519h36v1H146z M200 519h36v1H200z M327 519h55v1H327z M436 519h109v1H436z M4 520h19v1H4z M41 520h44v1H41z M105 520h19v1H105z M146 520h36v1H146z M200 520h36v1H200z M327 520h55v1H327z M436 520h109v1H436z M3 521h20v1H3z M41 521h45v1H41z M105 521h20v1H105z M146 521h36v1H146z M200 521h36v1H200z M327 521h55v1H327z M436 521h109v1H436z M3 522h20v1H3z M40 522h46v1H40z M105 522h20v1H105z M146 522h36v1H146z M200 522h36v1H200z M327 522h55v1H327z M436 522h109v1H436z M3 523h19v1H3z M40 523h47v1H40z M106 523h19v1H106z M146 523h36v1H146z M200 523h36v1H200z M327 523h55v1H327z M436 523h109v1H436z M3 524h19v1H3z M39 524h49v1H39z M106 524h19v1H106z M146 524h36v1H146z M200 524h36v1H200z M327 524h55v1H327z M436 524h109v1H436z M3 525h18v1H3z M38 525h50v1H38z M106 525h19v1H106z M146 525h36v1H146z M200 525h36v1H200z M327 525h55v1H327z M436 525h109v1H436z M2 526h19v1H2z M38 526h51v1H38z M106 526h20v1H106z M146 526h36v1H146z M200 526h36v1H200z M327 526h55v1H327z M436 526h109v1H436z M2 527h19v1H2z M38 527h51v1H38z M106 527h20v1H106z M164 527h18v1H164z M200 527h18v1H200z M291 527h18v1H291z M345 527h19v1H345z M382 527h36v1H382z M436 527h18v1H436z M473 527h109v1H473z M2 528h19v1H2z M38 528h51v1H38z M107 528h19v1H107z M164 528h18v1H164z M200 528h18v1H200z M291 528h18v1H291z M345 528h19v1H345z M382 528h36v1H382z M436 528h18v1H436z M473 528h109v1H473z M2 529h19v1H2z M37 529h52v1H37z M107 529h19v1H107z M164 529h18v1H164z M200 529h18v1H200z M291 529h18v1H291z M345 529h19v1H345z M382 529h36v1H382z M436 529h18v1H436z M473 529h109v1H473z M2 530h19v1H2z M37 530h52v1H37z M107 530h19v1H107z M164 530h18v1H164z M200 530h18v1H200z M291 530h18v1H291z M345 530h19v1H345z M382 530h36v1H382z M436 530h18v1H436z M473 530h109v1H473z M1 531h19v1H1z M37 531h53v1H37z M108 531h18v1H108z M164 531h18v1H164z M200 531h18v1H200z M291 531h18v1H291z M345 531h19v1H345z M382 531h36v1H382z M436 531h18v1H436z M473 531h109v1H473z M1 532h19v1H1z M37 532h53v1H37z M108 532h18v1H108z M164 532h18v1H164z M200 532h18v1H200z M291 532h18v1H291z M345 532h19v1H345z M382 532h36v1H382z M436 532h18v1H436z M473 532h109v1H473z M1 533h19v1H1z M37 533h53v1H37z M108 533h18v1H108z M164 533h18v1H164z M200 533h18v1H200z M291 533h18v1H291z M345 533h19v1H345z M382 533h36v1H382z M436 533h18v1H436z M473 533h109v1H473z M1 534h19v1H1z M37 534h53v1H37z M108 534h18v1H108z M164 534h18v1H164z M200 534h18v1H200z M291 534h18v1H291z M345 534h19v1H345z M382 534h36v1H382z M436 534h18v1H436z M473 534h109v1H473z M1 535h19v1H1z M37 535h53v1H37z M108 535h18v1H108z M164 535h18v1H164z M200 535h18v1H200z M291 535h18v1H291z M345 535h19v1H345z M382 535h36v1H382z M436 535h18v1H436z M473 535h109v1H473z M1 536h19v1H1z M37 536h53v1H37z M108 536h18v1H108z M164 536h18v1H164z M200 536h18v1H200z M291 536h18v1H291z M345 536h19v1H345z M382 536h36v1H382z M436 536h18v1H436z M473 536h109v1H473z M1 537h19v1H1z M37 537h53v1H37z M108 537h18v1H108z M164 537h18v1H164z M200 537h18v1H200z M291 537h18v1H291z M345 537h19v1H345z M382 537h36v1H382z M436 537h18v1H436z M473 537h109v1H473z M1 538h19v1H1z M37 538h53v1H37z M108 538h18v1H108z M164 538h18v1H164z M200 538h18v1H200z M291 538h18v1H291z M345 538h19v1H345z M382 538h36v1H382z M436 538h18v1H436z M473 538h109v1H473z M1 539h19v1H1z M37 539h53v1H37z M108 539h18v1H108z M164 539h18v1H164z M200 539h18v1H200z M291 539h18v1H291z M345 539h19v1H345z M382 539h36v1H382z M436 539h18v1H436z M473 539h109v1H473z M1 540h19v1H1z M37 540h52v1H37z M108 540h18v1H108z M164 540h18v1H164z M200 540h18v1H200z M291 540h18v1H291z M345 540h19v1H345z M382 540h36v1H382z M436 540h18v1H436z M473 540h109v1H473z M2 541h19v1H2z M37 541h52v1H37z M107 541h19v1H107z M164 541h18v1H164z M200 541h18v1H200z M291 541h18v1H291z M345 541h19v1H345z M382 541h36v1H382z M436 541h18v1H436z M473 541h109v1H473z M2 542h19v1H2z M38 542h51v1H38z M107 542h19v1H107z M164 542h18v1H164z M200 542h18v1H200z M291 542h18v1H291z M345 542h19v1H345z M382 542h36v1H382z M436 542h18v1H436z M473 542h109v1H473z M2 543h19v1H2z M38 543h51v1H38z M107 543h19v1H107z M164 543h18v1H164z M200 543h18v1H200z M291 543h18v1H291z M345 543h19v1H345z M382 543h36v1H382z M436 543h18v1H436z M473 543h109v1H473z M2 544h19v1H2z M38 544h51v1H38z M107 544h19v1H107z M164 544h18v1H164z M200 544h18v1H200z M291 544h18v1H291z M345 544h19v1H345z M382 544h36v1H382z M436 544h18v1H436z M473 544h109v1H473z M2 545h19v1H2z M38 545h50v1H38z M106 545h20v1H106z M182 545h18v1H182z M236 545h37v1H236z M291 545h36v1H291z M345 545h19v1H345z M382 545h18v1H382z M418 545h18v1H418z M454 545h73v1H454z M545 545h18v1H545z M3 546h18v1H3z M39 546h49v1H39z M106 546h19v1H106z M182 546h18v1H182z M236 546h37v1H236z M291 546h36v1H291z M345 546h19v1H345z M382 546h18v1H382z M418 546h18v1H418z M454 546h73v1H454z M545 546h18v1H545z M3 547h18v1H3z M40 547h48v1H40z M106 547h19v1H106z M182 547h18v1H182z M236 547h37v1H236z M291 547h36v1H291z M345 547h19v1H345z M382 547h18v1H382z M418 547h18v1H418z M454 547h73v1H454z M545 547h18v1H545z M3 548h19v1H3z M40 548h47v1H40z M106 548h19v1H106z M182 548h18v1H182z M236 548h37v1H236z M291 548h36v1H291z M345 548h19v1H345z M382 548h18v1H382z M418 548h18v1H418z M454 548h73v1H454z M545 548h18v1H545z M3 549h20v1H3z M41 549h45v1H41z M105 549h20v1H105z M182 549h18v1H182z M236 549h37v1H236z M291 549h36v1H291z M345 549h19v1H345z M382 549h18v1H382z M418 549h18v1H418z M454 549h73v1H454z M545 549h18v1H545z M3 550h20v1H3z M41 550h44v1H41z M105 550h20v1H105z M182 550h18v1H182z M236 550h37v1H236z M291 550h36v1H291z M345 550h19v1H345z M382 550h18v1H382z M418 550h18v1H418z M454 550h73v1H454z M545 550h18v1H545z M3 551h20v1H3z M42 551h43v1H42z M105 551h20v1H105z M182 551h18v1H182z M236 551h37v1H236z M291 551h36v1H291z M345 551h19v1H345z M382 551h18v1H382z M418 551h18v1H418z M454 551h73v1H454z M545 551h18v1H545z M4 552h20v1H4z M43 552h41v1H43z M104 552h20v1H104z M182 552h18v1H182z M236 552h37v1H236z M291 552h36v1H291z M345 552h19v1H345z M382 552h18v1H382z M418 552h18v1H418z M454 552h73v1H454z M545 552h18v1H545z M4 553h20v1H4z M44 553h39v1H44z M104 553h20v1H104z M182 553h18v1H182z M236 553h37v1H236z M291 553h36v1H291z M345 553h19v1H345z M382 553h18v1H382z M418 553h18v1H418z M454 553h73v1H454z M545 553h18v1H545z M4 554h20v1H4z M44 554h38v1H44z M103 554h20v1H103z M182 554h18v1H182z M236 554h37v1H236z M291 554h36v1H291z M345 554h19v1H345z M382 554h18v1H382z M418 554h18v1H418z M454 554h73v1H454z M545 554h18v1H545z M4 555h21v1H4z M45 555h36v1H45z M103 555h20v1H103z M182 555h18v1H182z M236 555h37v1H236z M291 555h36v1H291z M345 555h19v1H345z M382 555h18v1H382z M418 555h18v1H418z M454 555h73v1H454z M545 555h18v1H545z M5 556h21v1H5z M47 556h33v1H47z M102 556h21v1H102z M182 556h18v1H182z M236 556h37v1H236z M291 556h36v1H291z M345 556h19v1H345z M382 556h18v1H382z M418 556h18v1H418z M454 556h73v1H454z M545 556h18v1H545z M6 557h20v1H6z M48 557h30v1H48z M102 557h20v1H102z M182 557h18v1H182z M236 557h37v1H236z M291 557h36v1H291z M345 557h19v1H345z M382 557h18v1H382z M418 557h18v1H418z M454 557h73v1H454z M545 557h18v1H545z M6 558h20v1H6z M50 558h27v1H50z M101 558h21v1H101z M182 558h18v1H182z M236 558h37v1H236z M291 558h36v1H291z M345 558h19v1H345z M382 558h18v1H382z M418 558h18v1H418z M454 558h73v1H454z M545 558h18v1H545z M6 559h21v1H6z M52 559h23v1H52z M101 559h21v1H101z M182 559h18v1H182z M236 559h37v1H236z M291 559h36v1H291z M345 559h19v1H345z M382 559h18v1H382z M418 559h18v1H418z M454 559h73v1H454z M545 559h18v1H545z M7 560h21v1H7z M54 560h18v1H54z M100 560h21v1H100z M182 560h18v1H182z M236 560h37v1H236z M291 560h36v1H291z M345 560h19v1H345z M382 560h18v1H382z M418 560h18v1H418z M454 560h73v1H454z M545 560h18v1H545z M7 561h21v1H7z M57 561h14v1H57z M99 561h22v1H99z M182 561h18v1H182z M236 561h37v1H236z M291 561h36v1H291z M345 561h19v1H345z M382 561h18v1H382z M418 561h18v1H418z M454 561h73v1H454z M545 561h18v1H545z M7 562h22v1H7z M99 562h21v1H99z M182 562h18v1H182z M236 562h37v1H236z M291 562h36v1H291z M345 562h19v1H345z M382 562h18v1H382z M418 562h18v1H418z M454 562h73v1H454z M545 562h18v1H545z M8 563h22v1H8z M98 563h22v1H98z M164 563h18v1H164z M236 563h37v1H236z M309 563h18v1H309z M345 563h73v1H345z M436 563h18v1H436z M473 563h18v1H473z M527 563h18v1H527z M9 564h22v1H9z M97 564h22v1H97z M164 564h18v1H164z M236 564h37v1H236z M309 564h18v1H309z M345 564h73v1H345z M436 564h18v1H436z M473 564h18v1H473z M527 564h18v1H527z M9 565h22v1H9z M96 565h23v1H96z M164 565h18v1H164z M236 565h37v1H236z M309 565h18v1H309z M345 565h73v1H345z M436 565h18v1H436z M473 565h18v1H473z M527 565h18v1H527z M10 566h23v1H10z M95 566h23v1H95z M164 566h18v1H164z M236 566h37v1H236z M309 566h18v1H309z M345 566h73v1H345z M436 566h18v1H436z M473 566h18v1H473z M527 566h18v1H527z M10 567h24v1H10z M94 567h23v1H94z M164 567h18v1H164z M236 567h37v1H236z M309 567h18v1H309z M345 567h73v1H345z M436 567h18v1H436z M473 567h18v1H473z M527 567h18v1H527z M10 568h24v1H10z M93 568h24v1H93z M164 568h18v1H164z M236 568h37v1H236z M309 568h18v1H309z M345 568h73v1H345z M436 568h18v1H436z M473 568h18v1H473z M527 568h18v1H527z M11 569h25v1H11z M92 569h24v1H92z M164 569h18v1H164z M236 569h37v1H236z M309 569h18v1H309z M345 569h73v1H345z M436 569h18v1H436z M473 569h18v1H473z M527 569h18v1H527z M12 570h25v1H12z M91 570h25v1H91z M164 570h18v1H164z M236 570h37v1H236z M309 570h18v1H309z M345 570h73v1H345z M436 570h18v1H436z M473 570h18v1H473z M527 570h18v1H527z M13 571h25v1H13z M89 571h26v1H89z M164 571h18v1H164z M236 571h37v1H236z M309 571h18v1H309z M345 571h73v1H345z M436 571h18v1H436z M473 571h18v1H473z M527 571h18v1H527z M13 572h27v1H13z M88 572h27v1H88z M164 572h18v1H164z M236 572h37v1H236z M309 572h18v1H309z M345 572h73v1H345z M436 572h18v1H436z M473 572h18v1H473z M527 572h18v1H527z M14 573h28v1H14z M86 573h27v1H86z M164 573h18v1H164z M236 573h37v1H236z M309 573h18v1H309z M345 573h73v1H345z M436 573h18v1H436z M473 573h18v1H473z M527 573h18v1H527z M15 574h29v1H15z M84 574h29v1H84z M164 574h18v1H164z M236 574h37v1H236z M309 574h18v1H309z M345 574h73v1H345z M436 574h18v1H436z M473 574h18v1H473z M527 574h18v1H527z M16 575h29v1H16z M83 575h29v1H83z M164 575h18v1H164z M236 575h37v1H236z M309 575h18v1H309z M345 575h73v1H345z M436 575h18v1H436z M473 575h18v1H473z M527 575h18v1H527z M17 576h31v1H17z M80 576h31v1H80z M164 576h18v1H164z M236 576h37v1H236z M309 576h18v1H309z M345 576h73v1H345z M436 576h18v1H436z M473 576h18v1H473z M527 576h18v1H527z M17 577h34v1H17z M77 577h33v1H77z M164 577h18v1H164z M236 577h37v1H236z M309 577h18v1H309z M345 577h73v1H345z M436 577h18v1H436z M473 577h18v1H473z M527 577h18v1H527z M18 578h35v1H18z M75 578h35v1H75z M164 578h18v1H164z M236 578h37v1H236z M309 578h18v1H309z M345 578h73v1H345z M436 578h18v1H436z M473 578h18v1H473z M527 578h18v1H527z M19 579h40v1H19z M68 579h41v1H68z M164 579h18v1H164z M236 579h37v1H236z M309 579h18v1H309z M345 579h73v1H345z M436 579h18v1H436z M473 579h18v1H473z M527 579h18v1H527z M20 580h88v1H20z M164 580h18v1H164z M236 580h37v1H236z M309 580h18v1H309z M345 580h73v1H345z M436 580h18v1H436z M473 580h18v1H473z M527 580h18v1H527z M21 581h86v1H21z M164 581h18v1H164z M236 581h37v1H236z M309 581h18v1H309z M345 581h73v1H345z M436 581h18v1H436z M473 581h18v1H473z M527 581h18v1H527z M22 582h84v1H22z M146 582h18v1H146z M200 582h18v1H200z M255 582h72v1H255z M364 582h54v1H364z M436 582h18v1H436z M473 582h18v1H473z M527 582h18v1H527z M582 582h18v1H582z M24 583h80v1H24z M146 583h18v1H146z M200 583h18v1H200z M255 583h72v1H255z M364 583h54v1H364z M436 583h18v1H436z M473 583h18v1H473z M527 583h18v1H527z M582 583h18v1H582z M25 584h78v1H25z M146 584h18v1H146z M200 584h18v1H200z M255 584h72v1H255z M364 584h54v1H364z M436 584h18v1H436z M473 584h18v1H473z M527 584h18v1H527z M582 584h18v1H582z M26 585h76v1H26z M146 585h18v1H146z M200 585h18v1H200z M255 585h72v1H255z M364 585h54v1H364z M436 585h18v1H436z M473 585h18v1H473z M527 585h18v1H527z M582 585h18v1H582z M27 586h74v1H27z M146 586h18v1H146z M200 586h18v1H200z M255 586h72v1H255z M364 586h54v1H364z M436 586h18v1H436z M473 586h18v1H473z M527 586h18v1H527z M582 586h18v1H582z M29 587h70v1H29z M146 587h18v1H146z M200 587h18v1H200z M255 587h72v1H255z M364 587h54v1H364z M436 587h18v1H436z M473 587h18v1H473z M527 587h18v1H527z M582 587h18v1H582z M30 588h68v1H30z M146 588h18v1H146z M200 588h18v1H200z M255 588h72v1H255z M364 588h54v1H364z M436 588h18v1H436z M473 588h18v1H473z M527 588h18v1H527z M582 588h18v1H582z M31 589h65v1H31z M146 589h18v1H146z M200 589h18v1H200z M255 589h72v1H255z M364 589h54v1H364z M436 589h18v1H436z M473 589h18v1H473z M527 589h18v1H527z M582 589h18v1H582z M34 590h60v1H34z M146 590h18v1H146z M200 590h18v1H200z M255 590h72v1H255z M364 590h54v1H364z M436 590h18v1H436z M473 590h18v1H473z M527 590h18v1H527z M582 590h18v1H582z M36 591h56v1H36z M146 591h18v1H146z M200 591h18v1H200z M255 591h72v1H255z M364 591h54v1H364z M436 591h18v1H436z M473 591h18v1H473z M527 591h18v1H527z M582 591h18v1H582z M37 592h54v1H37z M146 592h18v1H146z M200 592h18v1H200z M255 592h72v1H255z M364 592h54v1H364z M436 592h18v1H436z M473 592h18v1H473z M527 592h18v1H527z M582 592h18v1H582z M40 593h48v1H40z M146 593h18v1H146z M200 593h18v1H200z M255 593h72v1H255z M364 593h54v1H364z M436 593h18v1H436z M473 593h18v1H473z M527 593h18v1H527z M582 593h18v1H582z M43 594h42v1H43z M146 594h18v1H146z M200 594h18v1H200z M255 594h72v1H255z M364 594h54v1H364z M436 594h18v1H436z M473 594h18v1H473z M527 594h18v1H527z M582 594h18v1H582z M44 595h40v1H44z M146 595h18v1H146z M200 595h18v1H200z M255 595h72v1H255z M364 595h54v1H364z M436 595h18v1H436z M473 595h18v1H473z M527 595h18v1H527z M582 595h18v1H582z M48 596h31v1H48z M146 596h18v1H146z M200 596h18v1H200z M255 596h72v1H255z M364 596h54v1H364z M436 596h18v1H436z M473 596h18v1H473z M527 596h18v1H527z M582 596h18v1H582z M54 597h20v1H54z M146 597h18v1H146z M200 597h18v1H200z M255 597h72v1H255z M364 597h54v1H364z M436 597h18v1H436z M473 597h18v1H473z M527 597h18v1H527z M582 597h18v1H582z M59 598h10v1H59z M146 598h18v1H146z M200 598h18v1H200z M255 598h72v1H255z M364 598h54v1H364z M436 598h18v1H436z M473 598h18v1H473z M527 598h18v1H527z M582 598h18v1H582z M146 599h18v1H146z M200 599h18v1H200z M255 599h72v1H255z M364 599h54v1H364z M436 599h18v1H436z M473 599h18v1H473z M527 599h18v1H527z M582 599h18v1H582z"/>
</svg>
